<svg width="33" height="32" viewBox="0 0 33 32" fill="none" xmlns="http://www.w3.org/2000/svg">
<rect width="33" height="32" fill="#CFCCCC"/>
<path d="M24.4004 15.9022C24.0587 15.9022 23.774 15.7597 23.5462 15.4748C23.3754 15.1898 23.4039 14.8763 23.6316 14.5343C25.34 12.0264 26.1941 9.60404 26.1941 7.26715C26.1941 5.61423 25.6816 4.27479 24.6566 3.24884C23.6886 2.16589 22.208 1.62442 20.215 1.62442C17.2539 1.62442 14.3497 2.93536 11.5025 5.55723C8.71227 8.12211 5.83658 11.3425 2.87548 15.2183C2.70465 15.3893 2.53382 15.4748 2.36299 15.4748C2.07827 15.4748 1.85049 15.3038 1.67966 14.9618C1.45188 14.6198 1.45188 14.2778 1.67966 13.9358C3.61576 11.371 5.55187 9.03407 7.48797 6.92517C9.42407 4.81627 11.4171 3.13485 13.4671 1.88091C15.574 0.62697 17.7664 0 20.0442 0C22.8914 0 24.9129 0.683969 26.1087 2.0519C27.3046 3.41984 27.9025 5.07276 27.9025 7.01067C27.9025 8.4356 27.6462 9.88902 27.1337 11.371C26.6212 12.8529 25.9094 14.2493 24.9983 15.5603C24.8275 15.7882 24.6282 15.9022 24.4004 15.9022ZM9.02546 26.5037C7.82963 26.5037 6.89005 26.1047 6.20672 25.3068C5.58034 24.4518 5.26714 23.3689 5.26714 22.0579C5.26714 20.348 5.77964 18.4671 6.80463 16.4152C7.82963 14.3633 9.13935 12.4254 10.7338 10.6015C12.3852 8.72058 14.0935 7.18166 15.8588 5.98471C17.624 4.78777 19.2185 4.1893 20.6421 4.1893C21.4393 4.1893 21.8379 4.47428 21.8379 5.04425C21.8379 5.27224 21.7525 5.50024 21.5817 5.72822C21.4108 5.89922 21.183 5.95621 20.8983 5.89922C19.7025 5.78522 18.3074 6.2697 16.7129 7.35264C15.1754 8.43559 13.6664 9.83203 12.1859 11.5419C10.7053 13.2519 9.45254 15.0758 8.42755 17.0137C7.4595 18.8946 6.97547 20.6045 6.97547 22.1434C6.97547 22.8844 7.11783 23.5114 7.40255 24.0243C7.68727 24.5373 8.22824 24.7938 9.02546 24.7938C9.93657 24.7938 10.9046 24.5088 11.9296 23.9389C12.9546 23.3119 13.8942 22.5709 14.7484 21.716C15.6025 20.861 16.2289 20.063 16.6275 19.3221C16.7983 19.0371 17.0261 18.8946 17.3108 18.8946C17.5956 18.8946 17.8518 19.0371 18.0796 19.3221C18.3074 19.5501 18.3074 19.835 18.0796 20.177C17.5671 21.032 16.8268 21.9724 15.8588 22.9984C14.8907 23.9673 13.8088 24.7938 12.6129 25.4778C11.4171 26.1617 10.2213 26.5037 9.02546 26.5037ZM23.3754 19.6641C21.4962 19.6641 19.8733 19.0941 18.5067 17.9541C17.14 16.8142 16.4567 15.2753 16.4567 13.3374C16.4567 12.6534 16.5421 11.9409 16.7129 11.2C16.9407 10.402 17.2539 9.57554 17.6525 8.72058C17.8233 8.3786 18.0796 8.2076 18.4213 8.2076C18.706 8.2076 18.9338 8.3216 19.1046 8.54959C19.3324 8.77758 19.3608 9.06256 19.19 9.40455C18.8483 10.0885 18.5921 10.744 18.4213 11.371C18.3074 11.9979 18.2504 12.5964 18.2504 13.1664C18.2504 14.7053 18.7629 15.9022 19.7879 16.7572C20.8129 17.5552 22.0372 17.9541 23.4608 17.9541C24.7136 17.9541 25.9948 17.6407 27.3046 17.0137C28.6143 16.3867 29.8101 15.3893 30.892 14.0213C31.0629 13.7933 31.2622 13.6793 31.49 13.6793C31.7747 13.6793 32.0309 13.8503 32.2587 14.1923C32.4865 14.4773 32.4865 14.7623 32.2587 15.0473C30.949 16.6432 29.4969 17.8116 27.9025 18.5526C26.365 19.2936 24.8559 19.6641 23.3754 19.6641ZM8.85463 31.89C6.40602 31.89 4.35604 31.092 2.70466 29.4961C1.05327 27.8432 0.341469 25.9053 0.569246 23.6824C0.569246 23.1124 0.853966 22.8274 1.42341 22.8274C1.65119 22.8274 1.87896 22.9414 2.10674 23.1694C2.27757 23.3404 2.33451 23.5684 2.27757 23.8534C2.16368 25.3353 2.73312 26.7887 3.9859 28.2136C5.29561 29.5816 6.94699 30.2656 8.94004 30.2656C10.2498 30.2656 11.6449 29.8666 13.1254 29.0686C14.606 28.2706 16.0865 26.9312 17.5671 25.0503C17.5671 25.0503 17.7379 24.8223 18.0796 24.3663C18.4782 23.9104 18.9053 23.4259 19.3608 22.9129C19.8164 22.3429 20.1296 21.887 20.3004 21.545C20.4712 21.203 20.699 21.032 20.9837 21.032C21.2685 21.032 21.4962 21.1745 21.6671 21.4595C21.8949 21.6875 21.9233 21.9724 21.7525 22.3144C21.4108 22.9984 20.9553 23.6539 20.3858 24.2808C19.8164 24.9078 19.3039 25.5348 18.8483 26.1617C17.2539 28.2136 15.574 29.6956 13.8088 30.6075C12.1004 31.4625 10.4491 31.89 8.85463 31.89Z" fill="#003B5C"/>
</svg>
