<svg width="70" height="66" viewBox="0 0 70 66" fill="none" xmlns="http://www.w3.org/2000/svg">
<path d="M19.9874 65.4044C16.0583 65.4044 12.5847 64.6064 9.56663 63.0105C6.54859 61.4146 4.1854 59.1632 2.47707 56.2563C0.825691 53.2924 0 49.7871 0 45.7403C0 40.8955 1.025 36.2218 3.07499 31.719C5.12498 27.1592 7.91525 22.9699 11.4458 19.1511C14.9763 15.3323 18.934 11.9979 23.3187 9.14806C27.7603 6.2412 32.3443 3.98981 37.0707 2.39389C41.854 0.797962 46.495 0 50.9935 0C55.3783 0 58.9657 0.598472 61.756 1.79542C64.5463 2.93536 66.5963 4.44579 67.906 6.3267C69.2157 8.20761 69.8706 10.2595 69.8706 12.4824C69.8706 14.5913 69.3296 16.7002 68.2477 18.8091C67.1657 20.918 65.5713 22.8559 63.4643 24.6228C61.4143 26.3327 58.9373 27.7292 56.0331 28.8121C53.129 29.8381 49.8831 30.351 46.2957 30.351C44.929 30.351 43.3346 30.2086 41.5123 29.9236C39.6901 29.6386 37.8964 29.1541 36.1311 28.4701C34.3658 27.7292 32.8853 26.7602 31.6895 25.5633C30.5506 24.3663 29.9811 22.8274 29.9811 20.9465V20.861C29.9811 20.291 30.2659 20.006 30.8353 20.006C31.4047 20.006 31.6895 20.2625 31.6895 20.7755C31.9172 22.7134 32.8283 24.2523 34.4228 25.3923C36.0742 26.5322 37.9818 27.3587 40.1457 27.8717C42.3665 28.3846 44.4165 28.6411 46.2957 28.6411C50.6804 28.6411 54.4956 27.8147 57.7414 26.1618C61.0442 24.5088 63.5782 22.4569 65.3435 20.006C67.1657 17.4982 68.0768 14.9903 68.0768 12.4824C68.0768 10.5445 67.4789 8.77758 66.2831 7.18166C65.1442 5.52873 63.322 4.2178 60.8164 3.24885C58.3109 2.2229 55.0366 1.70992 50.9935 1.70992C46.6658 1.70992 42.1957 2.50788 37.5832 4.1038C32.9707 5.64273 28.5291 7.80863 24.2582 10.6015C19.9874 13.3944 16.1437 16.6432 12.727 20.348C9.36732 24.0529 6.69095 28.0712 4.6979 32.4029C2.70485 36.6777 1.70833 41.1235 1.70833 45.7403C1.70833 51.269 3.35971 55.6578 6.66247 58.9067C10.0222 62.0985 14.4638 63.6944 19.9874 63.6944C23.518 63.6944 26.9916 63.153 30.4082 62.07C33.8818 60.9301 37.0137 59.2772 39.804 57.1113C42.5943 54.8884 44.7866 52.1525 46.3811 48.9037C46.5519 48.5617 46.7512 48.0487 46.979 47.3647C47.2637 46.6808 47.52 45.9968 47.7477 45.3128C47.9755 44.6289 48.0894 44.1729 48.0894 43.9449C48.0894 43.6599 48.0609 43.4889 48.004 43.4319C48.004 43.3179 48.004 43.2609 48.004 43.2609C47.8901 43.1469 47.6623 43.0899 47.3206 43.0899C46.4665 43.0899 45.8116 43.4319 45.3561 44.1159C44.9005 44.7429 44.5304 45.5123 44.2457 46.4243C43.9609 47.2792 43.5623 48.0487 43.0498 48.7327C41.6262 50.6706 39.6616 52.5515 37.1561 54.3754C34.7075 56.1423 32.0881 57.5957 29.2978 58.7357C26.5075 59.8756 23.8596 60.4456 21.3541 60.4456C16.7985 60.4456 13.2111 59.1062 10.5916 56.4273C8.02914 53.6914 6.74789 50.0721 6.74789 45.5693C6.74789 41.6935 7.659 37.7892 9.48121 33.8564C11.3034 29.9236 13.7236 26.1902 16.7416 22.6564C19.8166 19.1226 23.2617 15.9877 27.077 13.2519C30.8922 10.459 34.7929 8.2646 38.779 6.66868C42.8221 5.07276 46.6943 4.2748 50.3956 4.2748C55.9192 4.2748 59.8484 5.12976 62.1831 6.83968C64.5748 8.4926 65.7706 10.459 65.7706 12.7389C65.7706 14.3348 65.2865 15.9592 64.3185 17.6122C63.3504 19.2081 61.9838 20.69 60.2185 22.0579C58.5102 23.4259 56.5171 24.5373 54.2394 25.3923C51.9616 26.2472 49.5415 26.6747 46.979 26.6747C46.0679 26.6747 44.8436 26.5037 43.3061 26.1618C41.7686 25.8198 40.2026 25.3353 38.6082 24.7083C37.0707 24.0813 35.761 23.2834 34.679 22.3144C33.5971 21.3455 33.0561 20.234 33.0561 18.9801V18.8091C33.0561 18.2961 33.3408 18.0396 33.9103 18.0396C34.4228 18.0396 34.7075 18.2676 34.7644 18.7236C34.9353 19.5786 35.4762 20.3765 36.3874 21.1175C37.2985 21.8585 38.4089 22.5424 39.7186 23.1694C41.0283 23.7394 42.338 24.1953 43.6477 24.5373C44.9575 24.8223 46.0679 24.9648 46.979 24.9648C49.997 24.9648 52.7873 24.3378 55.3498 23.0839C57.9692 21.83 60.0762 20.2625 61.6706 18.3816C63.265 16.5007 64.0622 14.6483 64.0622 12.8244C64.0622 11.0005 63.0088 9.40455 60.9018 8.03662C58.8519 6.66868 55.3498 5.98472 50.3956 5.98472C46.8651 5.98472 43.1637 6.75418 39.2915 8.2931C35.4193 9.83203 31.661 11.9409 28.0166 14.6198C24.3721 17.2987 21.0694 20.348 18.1083 23.7679C15.1472 27.1307 12.784 30.693 11.0187 34.4548C9.31038 38.2167 8.45622 41.9215 8.45622 45.5693C8.45622 49.5591 9.5951 52.751 11.8729 55.1449C14.1506 57.5387 17.311 58.7357 21.3541 58.7357C23.0624 58.7357 24.97 58.3937 27.077 57.7097C29.2409 56.9688 31.3763 55.9998 33.4832 54.8029C35.5901 53.5489 37.4693 52.1525 39.1207 50.6136C40.7721 49.0747 41.9394 47.5072 42.6227 45.9113C43.1352 44.7714 43.6477 43.7454 44.1602 42.8335C44.6727 41.8645 45.7262 41.38 47.3206 41.38C48.972 41.38 49.7977 42.235 49.7977 43.9449C49.7977 44.3439 49.6554 44.9424 49.3706 45.7403C49.1429 46.5383 48.8866 47.3077 48.6019 48.0487C48.3172 48.7897 48.0894 49.3311 47.9186 49.6731C46.2672 53.15 43.9325 56.0568 40.9144 58.3937C37.9533 60.7306 34.6506 62.469 31.0061 63.609C27.3617 64.8059 23.6888 65.4044 19.9874 65.4044Z" fill="#003B5C"/>
</svg>
