<svg width="72" height="68" viewBox="0 0 72 68" fill="none" xmlns="http://www.w3.org/2000/svg">
<rect width="72" height="68" fill="#CFCCCC"/>
<path d="M20.9874 66.5147C17.0583 66.5147 13.5847 65.7168 10.5666 64.1208C7.54859 62.5249 5.1854 60.2735 3.47707 57.3667C1.82569 54.4028 1 50.8975 1 46.8507C1 42.0059 2.025 37.3321 4.07499 32.8293C6.12498 28.2696 8.91525 24.0803 12.4458 20.2614C15.9763 16.4426 19.934 13.1083 24.3187 10.2584C28.7603 7.35155 33.3443 5.10016 38.0707 3.50424C42.854 1.90831 47.495 1.11035 51.9935 1.11035C56.3783 1.11035 59.9657 1.70882 62.756 2.90577C65.5463 4.04571 67.5963 5.55614 68.906 7.43705C70.2157 9.31796 70.8706 11.3699 70.8706 13.5928C70.8706 15.7017 70.3296 17.8106 69.2476 19.9195C68.1657 22.0284 66.5713 23.9663 64.4643 25.7332C62.4143 27.4431 59.9373 28.8395 57.0331 29.9225C54.129 30.9484 50.8831 31.4614 47.2957 31.4614C45.929 31.4614 44.3346 31.3189 42.5123 31.0339C40.6901 30.7489 38.8964 30.2645 37.1311 29.5805C35.3658 28.8395 33.8853 27.8706 32.6895 26.6736C31.5506 25.4767 30.9811 23.9378 30.9811 22.0569V21.9714C30.9811 21.4014 31.2659 21.1164 31.8353 21.1164C32.4047 21.1164 32.6895 21.3729 32.6895 21.8859C32.9172 23.8238 33.8283 25.3627 35.4228 26.5026C37.0742 27.6426 38.9818 28.469 41.1457 28.982C43.3665 29.495 45.4165 29.7515 47.2957 29.7515C51.6804 29.7515 55.4956 28.925 58.7414 27.2721C62.0442 25.6192 64.5782 23.5673 66.3435 21.1164C68.1657 18.6085 69.0768 16.1006 69.0768 13.5928C69.0768 11.6548 68.4789 9.88793 67.2831 8.29201C66.1442 6.63909 64.322 5.32815 61.8164 4.3592C59.3109 3.33325 56.0366 2.82027 51.9935 2.82027C47.6658 2.82027 43.1957 3.61823 38.5832 5.21416C33.9707 6.75308 29.5291 8.91898 25.2582 11.7118C20.9874 14.5047 17.1437 17.7536 13.727 21.4584C10.3673 25.1632 7.69095 29.1815 5.6979 33.5133C3.70485 37.7881 2.70833 42.2339 2.70833 46.8507C2.70833 52.3794 4.35971 56.7682 7.66247 60.017C11.0222 63.2089 15.4638 64.8048 20.9874 64.8048C24.518 64.8048 27.9916 64.2633 31.4082 63.1804C34.8818 62.0404 38.0137 60.3875 40.804 58.2216C43.5943 55.9987 45.7866 53.2629 47.3811 50.014C47.5519 49.672 47.7512 49.1591 47.979 48.4751C48.2637 47.7911 48.52 47.1071 48.7477 46.4232C48.9755 45.7392 49.0894 45.2832 49.0894 45.0552C49.0894 44.7703 49.0609 44.5993 49.004 44.5423C49.004 44.4283 49.004 44.3713 49.004 44.3713C48.8901 44.2573 48.6623 44.2003 48.3206 44.2003C47.4665 44.2003 46.8116 44.5423 46.3561 45.2262C45.9005 45.8532 45.5304 46.6227 45.2457 47.5346C44.9609 48.3896 44.5623 49.159 44.0498 49.843C42.6262 51.7809 40.6616 53.6618 38.1561 55.4857C35.7075 57.2527 33.0881 58.7061 30.2978 59.846C27.5075 60.986 24.8596 61.556 22.3541 61.556C17.7985 61.556 14.2111 60.2165 11.5916 57.5377C9.02914 54.8018 7.74789 51.1825 7.74789 46.6797C7.74789 42.8039 8.659 38.8995 10.4812 34.9667C12.3034 31.0339 14.7236 27.3006 17.7416 23.7668C20.8166 20.2329 24.2617 17.0981 28.077 14.3622C31.8922 11.5694 35.7929 9.37495 39.779 7.77903C43.8221 6.18311 47.6943 5.38515 51.3956 5.38515C56.9192 5.38515 60.8484 6.24011 63.1831 7.95003C65.5747 9.60295 66.7706 11.5694 66.7706 13.8492C66.7706 15.4452 66.2865 17.0696 65.3185 18.7225C64.3504 20.3184 62.9838 21.8004 61.2185 23.1683C59.5102 24.5362 57.5171 25.6477 55.2394 26.5026C52.9616 27.3576 50.5415 27.7851 47.979 27.7851C47.0679 27.7851 45.8436 27.6141 44.3061 27.2721C42.7686 26.9301 41.2026 26.4456 39.6082 25.8187C38.0707 25.1917 36.761 24.3937 35.679 23.4248C34.5971 22.4558 34.0561 21.3444 34.0561 20.0904V19.9195C34.0561 19.4065 34.3408 19.15 34.9103 19.15C35.4228 19.15 35.7075 19.378 35.7644 19.834C35.9353 20.6889 36.4762 21.4869 37.3874 22.2278C38.2985 22.9688 39.4089 23.6528 40.7186 24.2797C42.0283 24.8497 43.338 25.3057 44.6477 25.6477C45.9575 25.9327 47.0679 26.0752 47.979 26.0752C50.997 26.0752 53.7873 25.4482 56.3498 24.1942C58.9692 22.9403 61.0762 21.3729 62.6706 19.492C64.265 17.6111 65.0623 15.7587 65.0623 13.9347C65.0623 12.1108 64.0088 10.5149 61.9018 9.14697C59.8519 7.77903 56.3498 7.09507 51.3956 7.09507C47.8651 7.09507 44.1637 7.86453 40.2915 9.40345C36.4193 10.9424 32.661 13.0513 29.0166 15.7302C25.3721 18.409 22.0694 21.4584 19.1083 24.8782C16.1472 28.2411 13.784 31.8034 12.0187 35.5652C10.3104 39.327 9.45622 43.0318 9.45622 46.6797C9.45622 50.6695 10.5951 53.8613 12.8729 56.2552C15.1506 58.6491 18.311 59.846 22.3541 59.846C24.0624 59.846 25.97 59.5041 28.077 58.8201C30.2409 58.0791 32.3763 57.1102 34.4832 55.9132C36.5901 54.6593 38.4693 53.2629 40.1207 51.7239C41.7721 50.185 42.9394 48.6176 43.6227 47.0217C44.1352 45.8817 44.6477 44.8558 45.1602 43.9438C45.6727 42.9749 46.7262 42.4904 48.3206 42.4904C49.972 42.4904 50.7977 43.3453 50.7977 45.0552C50.7977 45.4542 50.6554 46.0527 50.3706 46.8507C50.1429 47.6486 49.8866 48.4181 49.6019 49.159C49.3172 49.9 49.0894 50.4415 48.9186 50.7835C47.2672 54.2603 44.9325 57.1672 41.9144 59.5041C38.9533 61.8409 35.6506 63.5794 32.0061 64.7193C28.3617 65.9162 24.6888 66.5147 20.9874 66.5147Z" fill="#003B5C" stroke="#003B5C"/>
</svg>
