<svg width="171" height="56" viewBox="0 0 171 56" fill="none" xmlns="http://www.w3.org/2000/svg">
<path d="M138.6 36.5905C138.032 36.5905 137.625 36.3776 137.377 35.9519C137.164 35.5262 137.022 35.0827 136.951 34.6215C136.88 33.6991 136.951 32.5638 137.164 31.2157C137.377 29.832 137.749 28.3597 138.281 26.7987C138.812 25.2377 139.539 23.7299 140.46 22.2753C140.531 22.1334 140.496 21.9206 140.354 21.6367C140.212 21.3174 139.805 21.0868 139.131 20.9449C139.025 20.9094 138.919 20.8917 138.812 20.8917C138.706 20.8562 138.582 20.8385 138.44 20.8385C137.979 20.8385 137.501 20.9804 137.005 21.2642C136.544 21.5126 136.118 21.9738 135.729 22.6478C135.268 23.4284 134.63 24.5282 133.815 25.9473C133.035 27.3664 132.184 28.6968 131.263 29.9385C131.156 30.0804 131.014 30.1513 130.837 30.1513C130.66 30.1513 130.518 30.0627 130.412 29.8853C130.27 29.7079 130.27 29.5127 130.412 29.2999C131.333 28.0582 132.184 26.7455 132.964 25.3619C133.744 23.9783 134.346 22.8962 134.772 22.1157C135.268 21.2642 135.835 20.6611 136.473 20.3063C137.111 19.9516 137.767 19.7742 138.44 19.7742C139.291 19.7742 140.035 20.0048 140.673 20.466C141.311 20.8917 141.63 21.4061 141.63 22.0093C141.63 22.2576 141.541 22.5237 141.364 22.8075C140.159 24.7588 139.291 26.7455 138.759 28.7677C138.227 30.7899 137.962 32.4574 137.962 33.7701C137.962 34.4441 138.015 34.9053 138.121 35.1537C138.263 35.402 138.44 35.5262 138.653 35.5262C138.972 35.5262 139.326 35.3488 139.716 34.994C140.141 34.6038 140.496 34.2135 140.779 33.8233C141.098 33.3975 141.276 33.1492 141.311 33.0782C141.914 32.2268 142.516 31.1447 143.119 29.8321C143.721 28.5194 144.288 27.1712 144.82 25.7876C145.352 24.404 145.812 23.2155 146.202 22.2221C146.486 21.4416 147.018 20.8562 147.797 20.466C148.577 20.0403 149.357 19.8274 150.137 19.8274C150.81 19.8274 151.377 19.987 151.838 20.3063C152.334 20.6256 152.582 21.1401 152.582 21.8496C152.582 21.9915 152.582 22.1334 152.582 22.2753C152.582 22.3818 152.547 22.5237 152.476 22.7011C152.405 23.0204 152.21 23.6412 151.891 24.5636C151.572 25.4861 151.218 26.4972 150.828 27.597C150.438 28.6613 150.084 29.6192 149.765 30.4706C149.446 31.2866 149.251 31.7833 149.18 31.9607C149.073 32.1736 148.932 32.28 148.754 32.28C148.577 32.28 148.418 32.209 148.276 32.0671C148.17 31.9252 148.152 31.7478 148.223 31.535C148.294 31.3576 148.471 30.8609 148.754 30.0449C149.073 29.1935 149.41 28.2533 149.765 27.2245C150.154 26.1601 150.509 25.1845 150.828 24.2976C151.147 23.3751 151.342 22.772 151.413 22.4882C151.448 22.3463 151.466 22.1689 151.466 21.956C151.466 21.5658 151.342 21.2997 151.094 21.1578C150.846 20.9804 150.544 20.8917 150.19 20.8917C149.623 20.8917 149.02 21.0691 148.382 21.4239C147.78 21.7432 147.372 22.1512 147.159 22.6478C146.947 23.2155 146.628 24.0669 146.202 25.2022C145.777 26.302 145.281 27.5083 144.714 28.8209C144.182 30.0981 143.579 31.3398 142.906 32.5461C142.233 33.7168 141.524 34.6925 140.779 35.473C140.07 36.218 139.344 36.5905 138.6 36.5905ZM130.465 34.8344C130.252 34.8344 130.093 34.7279 129.987 34.5151C129.845 34.3022 129.88 34.1071 130.093 33.9297C131.44 32.617 132.468 31.3931 133.177 30.2578C133.921 29.1225 134.736 27.7744 135.622 26.2133C135.729 26.036 135.888 25.9473 136.101 25.9473C136.278 25.9473 136.437 26.036 136.579 26.2133C136.721 26.3553 136.721 26.5326 136.579 26.7455C135.693 28.342 134.86 29.7256 134.08 30.8964C133.301 32.0671 132.22 33.3266 130.837 34.6747C130.731 34.7812 130.607 34.8344 130.465 34.8344ZM128.232 55.908C127.381 55.908 126.584 55.6597 125.84 55.163C125.06 54.7018 124.741 53.9035 124.883 52.7683C124.883 52.449 125.042 52.2893 125.361 52.2893C125.503 52.2893 125.645 52.3425 125.786 52.449C125.893 52.5554 125.928 52.6973 125.893 52.8747C125.822 53.5488 126.017 54.0455 126.478 54.3648C126.903 54.6841 127.488 54.8437 128.232 54.8437C129.969 54.8437 131.652 54.4002 133.283 53.5133C134.913 52.6618 136.437 51.5088 137.855 50.0542C139.308 48.5997 140.638 46.9854 141.843 45.2116C143.083 43.4377 144.147 41.6461 145.033 39.8367C145.954 38.0274 146.699 36.3599 147.266 34.8344C147.372 34.657 147.602 34.4619 147.957 34.249C149.162 33.6104 150.332 32.9009 151.466 32.1203C152.636 31.3398 153.628 30.3997 154.443 29.2999C154.55 29.1225 154.691 29.0338 154.869 29.0338C155.046 29.0338 155.205 29.1402 155.347 29.3531C155.489 29.566 155.471 29.7611 155.294 29.9385C154.266 31.3221 153.096 32.4219 151.785 33.2379C150.509 34.0539 149.304 34.7634 148.17 35.3665C147.602 36.8921 146.858 38.5773 145.937 40.4221C145.015 42.2669 143.916 44.094 142.64 45.9034C141.4 47.7127 140.017 49.3624 138.493 50.8525C137.005 52.378 135.392 53.602 133.655 54.5244C131.918 55.4468 130.111 55.908 128.232 55.908ZM138.121 40.1028C136.951 40.1028 135.994 39.819 135.25 39.2513C134.541 38.6837 134.027 37.9564 133.708 37.0695C133.389 36.1825 133.247 35.2956 133.283 34.4086C133.283 34.0539 133.46 33.8765 133.815 33.8765C134.169 33.8765 134.346 34.0539 134.346 34.4086C134.311 35.6504 134.594 36.7324 135.197 37.6548C135.835 38.5773 136.81 39.0385 138.121 39.0385C138.972 39.0385 139.876 38.595 140.833 37.7081C141.79 36.8211 142.729 35.6681 143.65 34.249C144.607 32.8299 145.476 31.3221 146.256 29.7256C146.362 29.5128 146.521 29.4063 146.734 29.4063C146.911 29.4063 147.053 29.4773 147.159 29.6192C147.301 29.7611 147.319 29.9385 147.213 30.1513C146.468 31.6769 145.6 33.2202 144.607 34.7812C143.615 36.3067 142.569 37.5839 141.471 38.6127C140.372 39.6061 139.255 40.1028 138.121 40.1028ZM128.498 52.1829C128.037 52.1829 127.576 52.041 127.116 51.7572C126.619 51.5088 126.371 51.0831 126.371 50.48C126.371 50.3735 126.389 50.2671 126.424 50.1607C126.424 50.0542 126.442 49.9478 126.478 49.8414C126.655 49.2028 127.116 48.4755 127.86 47.6595C128.569 46.879 129.437 46.0808 130.465 45.2648C131.493 44.4843 132.503 43.7925 133.496 43.1893C134.523 42.5862 135.374 42.1605 136.048 41.9121C136.083 41.8767 136.154 41.8589 136.26 41.8589C136.615 41.8589 136.792 42.0541 136.792 42.4443C136.792 42.6217 136.686 42.7636 136.473 42.87C135.835 43.1184 135.037 43.5264 134.08 44.094C133.159 44.6617 132.202 45.3002 131.209 46.0098C130.252 46.7548 129.437 47.4821 128.764 48.1917C128.055 48.9367 127.629 49.5753 127.488 50.1075C127.488 50.1429 127.488 50.1784 127.488 50.2139C127.452 50.2848 127.435 50.3381 127.435 50.3735C127.435 50.8702 127.771 51.1186 128.445 51.1186C129.437 51.1186 130.536 50.7461 131.741 50.001C132.982 49.2915 134.222 48.3513 135.463 47.1806C136.703 46.0453 137.837 44.8568 138.865 43.6151C139.929 42.3734 140.762 41.2203 141.364 40.156C141.471 39.9786 141.63 39.8899 141.843 39.8899C142.02 39.8899 142.179 39.9609 142.321 40.1028C142.463 40.2802 142.463 40.4753 142.321 40.6882C141.719 41.7525 140.868 42.941 139.769 44.2537C138.706 45.5663 137.501 46.8258 136.154 48.032C134.842 49.2383 133.513 50.2316 132.166 51.0121C130.855 51.7926 129.632 52.1829 128.498 52.1829Z" fill="#003B5C"/>
<path d="M117.859 33.2909C117.681 33.2909 117.522 33.2022 117.38 33.0248C117.274 32.812 117.309 32.5991 117.486 32.3862C118.762 30.9671 120.003 29.8319 121.208 28.9804C122.449 28.1289 123.884 27.313 125.515 26.5324C126.153 26.2486 126.844 25.8052 127.588 25.202C128.332 24.5989 128.705 23.9071 128.705 23.1266C128.705 22.8428 128.598 22.5767 128.386 22.3284C128.208 22.08 127.854 21.9558 127.322 21.9558C127.074 21.9558 126.844 21.9736 126.631 22.0091C126.418 22.0091 126.188 22.0091 125.94 22.0091C124.735 22.0091 123.547 21.9026 122.378 21.6898C121.208 21.4414 120.038 21.3173 118.869 21.3173C117.203 21.3173 115.75 21.743 114.509 22.5944C113.304 23.4104 112.701 24.4925 112.701 25.8406C112.701 26.7985 113.056 27.6677 113.765 28.4482C113.871 28.5547 113.924 28.6788 113.924 28.8207C113.924 29.211 113.747 29.4061 113.393 29.4061C113.251 29.4061 113.109 29.3352 112.967 29.1933C112.046 28.2354 111.585 27.1356 111.585 25.8939C111.585 24.7231 111.922 23.712 112.595 22.8605C113.304 22.0091 114.208 21.3527 115.307 20.8915C116.441 20.4303 117.628 20.1997 118.869 20.1997C120.216 20.1997 121.545 20.3594 122.856 20.6787C124.168 20.9625 125.532 21.0334 126.95 20.8915C127.907 20.7851 128.616 20.9447 129.077 21.3705C129.538 21.7962 129.768 22.3284 129.768 22.967C129.768 23.5346 129.591 24.1377 129.236 24.7763C128.882 25.4149 128.368 26.0003 127.694 26.5324C127.127 26.9582 126.507 27.313 125.834 27.5968C125.196 27.8451 124.558 28.1467 123.92 28.5014C123.175 28.8917 122.325 29.4416 121.368 30.1512C120.446 30.8252 119.4 31.8186 118.231 33.1313C118.124 33.2377 118 33.2909 117.859 33.2909ZM115.732 27.8096C115.59 27.8096 115.466 27.7387 115.36 27.5968C114.97 27.1001 114.775 26.5324 114.775 25.8939C114.775 24.865 115.147 24.0668 115.891 23.4991C116.671 22.9315 117.646 22.6477 118.816 22.6477C119.914 22.6477 121.12 22.7718 122.431 23.0202C123.778 23.2685 124.894 23.4636 125.78 23.6056C126.099 23.641 126.259 23.8184 126.259 24.1377C126.259 24.5634 126.064 24.7408 125.674 24.6699C124.859 24.528 123.778 24.3328 122.431 24.0845C121.12 23.8362 119.95 23.712 118.922 23.712C116.866 23.712 115.838 24.4393 115.838 25.8939C115.838 26.2131 115.962 26.5679 116.21 26.9582C116.281 27.0291 116.317 27.1356 116.317 27.2775C116.317 27.6322 116.122 27.8096 115.732 27.8096ZM113.658 33.078C113.481 33.078 113.322 32.9894 113.18 32.812C113.074 32.5991 113.109 32.3862 113.286 32.1734C115.023 30.3995 116.476 29.0513 117.646 28.1289C118.816 27.2065 119.702 26.5857 120.304 26.2664C120.907 25.9471 121.208 25.7874 121.208 25.7874C121.244 25.7519 121.314 25.7342 121.421 25.7342C121.775 25.7342 121.952 25.9293 121.952 26.3196C121.952 26.497 121.846 26.6389 121.633 26.7453C121.633 26.7453 121.474 26.834 121.155 27.0114C120.836 27.1533 120.375 27.4371 119.773 27.8629C119.17 28.2886 118.373 28.9094 117.38 29.7254C116.423 30.5414 115.307 31.6057 114.031 32.9184C113.924 33.0248 113.8 33.078 113.658 33.078ZM123.069 40.9008C121.651 40.9008 120.357 40.6348 119.188 40.1026C118.054 39.5704 116.99 39.0383 115.998 38.5061C115.005 37.9385 113.995 37.6546 112.967 37.6546C112.329 37.6546 111.886 37.8143 111.638 38.1336C111.39 38.4529 111.266 38.7544 111.266 39.0383C111.266 39.393 111.337 39.6236 111.479 39.7301C111.585 39.8365 111.638 39.9607 111.638 40.1026C111.638 40.4928 111.461 40.688 111.106 40.688C110.965 40.688 110.823 40.617 110.681 40.4751C110.291 40.0849 110.096 39.6236 110.096 39.0915C110.096 38.3819 110.362 37.7966 110.894 37.3353C111.461 36.8387 112.188 36.5903 113.074 36.5903C114.066 36.5903 115.112 36.8741 116.21 37.4418C117.345 38.0094 118.497 38.5771 119.666 39.1447C120.836 39.6769 121.97 39.9429 123.069 39.9429C124.345 39.9429 125.337 39.5704 126.046 38.8254C126.755 38.0449 127.11 37.2112 127.11 36.3242C127.11 35.8276 127.003 35.3486 126.791 34.8874C126.578 34.3907 126.224 33.965 125.727 33.6102C125.586 33.5038 125.515 33.3619 125.515 33.1845C125.515 33.0071 125.603 32.8474 125.78 32.7055C125.993 32.5636 126.188 32.5814 126.365 32.7588C127.003 33.2554 127.464 33.8231 127.748 34.4617C128.031 35.0648 128.173 35.6679 128.173 36.271C128.173 37.4773 127.712 38.5593 126.791 39.5172C125.869 40.4396 124.629 40.9008 123.069 40.9008ZM124.185 37.6546C123.158 37.6546 122.201 37.495 121.314 37.1757C120.464 36.8209 119.631 36.4307 118.816 36.0049C118.036 35.5792 117.203 35.2067 116.317 34.8874C115.431 34.5326 114.456 34.3552 113.393 34.3552C111.975 34.3552 110.929 34.6568 110.256 35.2599C109.582 35.8276 109.246 36.3952 109.246 36.9628V37.0693C109.246 37.424 109.068 37.6014 108.714 37.6014C108.608 37.6014 108.501 37.566 108.395 37.495C108.253 37.3886 108.182 37.2644 108.182 37.1225C108.182 35.9872 108.679 35.0648 109.671 34.3552C110.663 33.6457 111.939 33.2909 113.499 33.2909C114.562 33.2909 115.537 33.4683 116.423 33.8231C117.345 34.1424 118.195 34.5149 118.975 34.9406C119.79 35.3663 120.623 35.7566 121.474 36.1114C122.325 36.4307 123.228 36.5903 124.185 36.5903C124.575 36.5903 124.77 36.7677 124.77 37.1225C124.77 37.4773 124.575 37.6546 124.185 37.6546Z" fill="#003B5C"/>
<path d="M103.409 30.4705C103.197 30.4705 103.02 30.3818 102.878 30.2044C102.771 30.027 102.789 29.8319 102.931 29.619C103.994 28.058 104.526 26.5502 104.526 25.0956C104.526 24.0668 104.207 23.2331 103.569 22.5945C102.966 21.9204 102.045 21.5834 100.804 21.5834C98.9611 21.5834 97.1534 22.3994 95.3812 24.0313C93.6444 25.6278 91.8545 27.6323 90.0114 30.0448C89.9051 30.1512 89.7987 30.2044 89.6924 30.2044C89.5152 30.2044 89.3734 30.098 89.2671 29.8851C89.1253 29.6722 89.1253 29.4594 89.2671 29.2465C90.4722 27.65 91.6773 26.1955 92.8824 24.8828C94.0875 23.5701 95.3281 22.5235 96.6041 21.743C97.9155 20.9625 99.2801 20.5723 100.698 20.5723C102.47 20.5723 103.728 20.998 104.473 21.8495C105.217 22.7009 105.589 23.7298 105.589 24.936C105.589 25.8229 105.43 26.7276 105.111 27.65C104.792 28.5724 104.349 29.4416 103.782 30.2576C103.675 30.3995 103.551 30.4705 103.409 30.4705ZM93.8394 37.0693C93.0951 37.0693 92.5102 36.821 92.0849 36.3243C91.695 35.7921 91.5001 35.118 91.5001 34.3021C91.5001 33.2377 91.8191 32.067 92.4571 30.7898C93.0951 29.5126 93.9103 28.3064 94.9027 27.1711C95.9306 26.0003 96.9939 25.0424 98.0927 24.2974C99.1915 23.5524 100.184 23.1799 101.07 23.1799C101.566 23.1799 101.814 23.3572 101.814 23.712C101.814 23.8539 101.761 23.9958 101.655 24.1378C101.549 24.2442 101.407 24.2797 101.23 24.2442C100.485 24.1732 99.6168 24.4748 98.6244 25.1489C97.6674 25.8229 96.7281 26.6921 95.8066 27.7565C94.885 28.8208 94.1052 29.9561 93.4672 31.1623C92.8647 32.3331 92.5634 33.3974 92.5634 34.3553C92.5634 34.8165 92.652 35.2067 92.8292 35.526C93.0064 35.8453 93.3432 36.005 93.8394 36.005C94.4065 36.005 95.0091 35.8276 95.6471 35.4728C96.2851 35.0826 96.8699 34.6214 97.4016 34.0892C97.9332 33.557 98.3231 33.0604 98.5712 32.5991C98.6776 32.4218 98.8193 32.3331 98.9966 32.3331C99.1738 32.3331 99.3333 32.4218 99.4751 32.5991C99.6168 32.7411 99.6168 32.9184 99.4751 33.1313C99.1561 33.6635 98.6953 34.2488 98.0927 34.8874C97.4902 35.4906 96.8167 36.005 96.0724 36.4307C95.3281 36.8564 94.5837 37.0693 93.8394 37.0693ZM102.771 32.812C101.602 32.812 100.592 32.4572 99.7409 31.7477C98.8902 31.0381 98.4649 30.0802 98.4649 28.874C98.4649 28.4483 98.5181 28.0048 98.6244 27.5436C98.7662 27.0469 98.9611 26.5325 99.2092 26.0003C99.3156 25.7875 99.4751 25.681 99.6877 25.681C99.8649 25.681 100.007 25.752 100.113 25.8939C100.255 26.0358 100.273 26.2132 100.166 26.4261C99.9536 26.8518 99.7941 27.2598 99.6877 27.65C99.6168 28.0403 99.5814 28.4128 99.5814 28.7676C99.5814 29.7255 99.9004 30.4705 100.538 31.0027C101.176 31.4993 101.938 31.7477 102.825 31.7477C103.604 31.7477 104.402 31.5526 105.217 31.1623C106.032 30.772 106.777 30.1512 107.45 29.2997C107.556 29.1578 107.68 29.0869 107.822 29.0869C107.999 29.0869 108.159 29.1933 108.301 29.4062C108.443 29.5836 108.443 29.7609 108.301 29.9383C107.486 30.9317 106.582 31.659 105.589 32.1202C104.632 32.5814 103.693 32.812 102.771 32.812ZM93.7331 40.4219C92.2089 40.4219 90.9329 39.9253 89.9051 38.9319C88.8772 37.903 88.4341 36.6968 88.5759 35.3132C88.5759 34.9584 88.7531 34.781 89.1075 34.781C89.2493 34.781 89.3911 34.852 89.5329 34.9939C89.6392 35.1003 89.6747 35.2422 89.6392 35.4196C89.5683 36.342 89.9228 37.2467 90.7026 38.1336C91.5178 38.9851 92.5457 39.4108 93.7862 39.4108C94.6014 39.4108 95.4698 39.1625 96.3914 38.6658C97.3129 38.1691 98.2345 37.3354 99.1561 36.1646C99.1561 36.1646 99.2624 36.0227 99.4751 35.7389C99.7232 35.4551 99.989 35.1535 100.273 34.8342C100.556 34.4795 100.751 34.1956 100.857 33.9828C100.964 33.7699 101.106 33.6635 101.283 33.6635C101.46 33.6635 101.602 33.7522 101.708 33.9296C101.85 34.0715 101.868 34.2488 101.761 34.4617C101.549 34.8874 101.265 35.2954 100.911 35.6857C100.556 36.0759 100.237 36.4662 99.9536 36.8564C98.9611 38.1336 97.9155 39.056 96.8167 39.6237C95.7534 40.1559 94.7255 40.4219 93.7331 40.4219Z" fill="#003B5C"/>
<path d="M84.6537 30.4705C84.441 30.4705 84.2638 30.3818 84.122 30.2044C84.0157 30.027 84.0334 29.8319 84.1752 29.619C85.2385 28.058 85.7702 26.5502 85.7702 25.0956C85.7702 24.0668 85.4512 23.2331 84.8132 22.5945C84.2106 21.9204 83.289 21.5834 82.0485 21.5834C80.2054 21.5834 78.3977 22.3994 76.6255 24.0313C74.8887 25.6278 73.0988 27.6323 71.2556 30.0448C71.1493 30.1512 71.043 30.2044 70.9366 30.2044C70.7594 30.2044 70.6177 30.098 70.5113 29.8851C70.3695 29.6722 70.3695 29.4594 70.5113 29.2465C71.7164 27.65 72.9215 26.1955 74.1267 24.8828C75.3318 23.5701 76.5723 22.5235 77.8483 21.743C79.1598 20.9625 80.5244 20.5723 81.9422 20.5723C83.7144 20.5723 84.9727 20.998 85.717 21.8495C86.4613 22.7009 86.8335 23.7298 86.8335 24.936C86.8335 25.8229 86.674 26.7276 86.355 27.65C86.036 28.5724 85.5929 29.4416 85.0258 30.2576C84.9195 30.3995 84.7954 30.4705 84.6537 30.4705ZM75.0837 37.0693C74.3393 37.0693 73.7545 36.821 73.3292 36.3243C72.9393 35.7921 72.7443 35.118 72.7443 34.3021C72.7443 33.2377 73.0633 32.067 73.7013 30.7898C74.3393 29.5126 75.1545 28.3064 76.147 27.1711C77.1749 26.0003 78.2382 25.0424 79.337 24.2974C80.4358 23.5524 81.4282 23.1799 82.3143 23.1799C82.8105 23.1799 83.0587 23.3572 83.0587 23.712C83.0587 23.8539 83.0055 23.9958 82.8992 24.1378C82.7928 24.2442 82.651 24.2797 82.4738 24.2442C81.7295 24.1732 80.8611 24.4748 79.8687 25.1489C78.9117 25.8229 77.9724 26.6921 77.0508 27.7565C76.1293 28.8208 75.3495 29.9561 74.7115 31.1623C74.1089 32.3331 73.8076 33.3974 73.8076 34.3553C73.8076 34.8165 73.8963 35.2067 74.0735 35.526C74.2507 35.8453 74.5874 36.005 75.0837 36.005C75.6508 36.005 76.2533 35.8276 76.8913 35.4728C77.5293 35.0826 78.1142 34.6214 78.6458 34.0892C79.1775 33.557 79.5674 33.0604 79.8155 32.5991C79.9218 32.4218 80.0636 32.3331 80.2408 32.3331C80.418 32.3331 80.5775 32.4218 80.7193 32.5991C80.8611 32.7411 80.8611 32.9184 80.7193 33.1313C80.4003 33.6635 79.9395 34.2488 79.337 34.8874C78.7344 35.4906 78.061 36.005 77.3166 36.4307C76.5723 36.8564 75.828 37.0693 75.0837 37.0693ZM84.0157 32.812C82.846 32.812 81.8358 32.4572 80.9852 31.7477C80.1345 31.0381 79.7092 30.0802 79.7092 28.874C79.7092 28.4483 79.7623 28.0048 79.8687 27.5436C80.0104 27.0469 80.2054 26.5325 80.4535 26.0003C80.5598 25.7875 80.7193 25.681 80.932 25.681C81.1092 25.681 81.251 25.752 81.3573 25.8939C81.4991 26.0358 81.5168 26.2132 81.4105 26.4261C81.1978 26.8518 81.0383 27.2598 80.932 27.65C80.8611 28.0403 80.8257 28.4128 80.8257 28.7676C80.8257 29.7255 81.1447 30.4705 81.7827 31.0027C82.4207 31.4993 83.1827 31.7477 84.0688 31.7477C84.8486 31.7477 85.6461 31.5526 86.4613 31.1623C87.2765 30.772 88.0209 30.1512 88.6943 29.2997C88.8007 29.1578 88.9247 29.0869 89.0665 29.0869C89.2437 29.0869 89.4032 29.1933 89.545 29.4062C89.6868 29.5836 89.6868 29.7609 89.545 29.9383C88.7298 30.9317 87.8259 31.659 86.8335 32.1202C85.8765 32.5814 84.9372 32.812 84.0157 32.812ZM74.9773 40.4219C73.4532 40.4219 72.1772 39.9253 71.1493 38.9319C70.1214 37.903 69.6784 36.6968 69.8202 35.3132C69.8202 34.9584 69.9974 34.781 70.3518 34.781C70.4936 34.781 70.6354 34.852 70.7771 34.9939C70.8835 35.1003 70.9189 35.2422 70.8835 35.4196C70.8126 36.342 71.167 37.2467 71.9468 38.1336C72.762 38.9851 73.7899 39.4108 75.0305 39.4108C75.8457 39.4108 76.7141 39.1625 77.6357 38.6658C78.5572 38.1691 79.4788 37.3354 80.4003 36.1646C80.4003 36.1646 80.5067 36.0227 80.7193 35.7389C80.9674 35.4551 81.2333 35.1535 81.5168 34.8342C81.8004 34.4795 81.9953 34.1956 82.1017 33.9828C82.208 33.7699 82.3498 33.6635 82.527 33.6635C82.7042 33.6635 82.846 33.7522 82.9523 33.9296C83.0941 34.0715 83.1118 34.2488 83.0055 34.4617C82.7928 34.8874 82.5093 35.2954 82.1548 35.6857C81.8004 36.0759 81.4814 36.4662 81.1978 36.8564C80.2054 38.1336 79.1598 39.056 78.061 39.6237C76.9977 40.1559 75.9698 40.4219 74.9773 40.4219Z" fill="#003B5C"/>
<path d="M53.6852 30.2044C53.508 30.2044 53.3662 30.0979 53.2599 29.8851C53.1181 29.6722 53.1181 29.4771 53.2599 29.2997C53.9688 28.4837 54.6245 27.6323 55.2271 26.7453C55.8296 25.8584 56.4145 24.9715 56.9816 24.0845C57.9386 22.6654 58.9842 21.1399 60.1184 19.5079C61.2881 17.8759 62.5286 16.2617 63.8401 14.6652C65.187 13.0687 66.5693 11.6142 67.9871 10.3015C69.4049 8.95334 70.8404 7.87128 72.2936 7.0553C73.5341 6.38123 74.6152 6.04419 75.5368 6.04419C76.4583 6.04419 77.1495 6.34575 77.6103 6.94887C78.1065 7.51651 78.3546 8.26154 78.3546 9.18395C78.3546 9.60968 78.3014 10.0532 78.1951 10.5144C78.1242 10.9401 77.9824 11.4013 77.7698 11.898C77.6634 12.1463 77.2558 12.6962 76.5469 13.5477C75.8735 14.3637 75.0228 15.3748 73.9949 16.581C72.967 17.7518 71.8683 18.9757 70.6986 20.2529C69.5644 21.5301 68.4656 22.7541 67.4023 23.9249C66.3389 25.0956 65.4174 26.0713 64.6376 26.8518C63.8933 27.6323 63.4148 28.1112 63.2021 28.2886C63.0958 28.395 62.9894 28.4482 62.8831 28.4482C62.4932 28.4482 62.2983 28.2354 62.2983 27.8097C62.2983 27.7032 62.3691 27.579 62.5109 27.4371C62.7236 27.2597 63.2021 26.7808 63.9464 26.0003C64.6908 25.2198 65.5946 24.2619 66.6579 23.1266C67.7213 21.9913 68.82 20.8028 69.9543 19.5611C71.0885 18.2839 72.1518 17.0777 73.1443 15.9424C74.1721 14.7717 75.0228 13.7783 75.6963 12.9623C76.3697 12.1463 76.7419 11.6496 76.8128 11.4722C77.1672 10.6563 77.3444 9.87576 77.3444 9.13074C77.3444 8.52762 77.1849 8.04867 76.8659 7.6939C76.5824 7.30364 76.1393 7.10851 75.5368 7.10851C74.7924 7.10851 73.8886 7.41007 72.8253 8.01319C71.4429 8.7937 70.0606 9.84028 68.6783 11.153C67.2959 12.4301 65.949 13.867 64.6376 15.4635C63.3261 17.0245 62.1033 18.6032 60.9691 20.1997C59.8349 21.7962 58.807 23.2863 57.8854 24.6699C57.2829 25.5568 56.6803 26.4615 56.0777 27.3839C55.4752 28.3063 54.8195 29.1755 54.1106 29.9915C54.0042 30.1334 53.8625 30.2044 53.6852 30.2044ZM59.1614 36.5903C58.0626 36.5903 57.2829 36.3597 56.8221 35.8985C56.3967 35.4373 56.1841 34.8697 56.1841 34.1956C56.1841 33.4861 56.3436 32.7233 56.6626 31.9073C57.017 31.0558 57.3715 30.3286 57.7259 29.7254C58.2576 28.803 58.9842 27.7032 59.9058 26.426C60.8273 25.1488 61.8375 23.8184 62.9363 22.4348C64.0705 21.0157 65.2047 19.6498 66.3389 18.3372C67.5086 17.0245 68.6074 15.8715 69.6353 14.8781C70.6631 13.8492 71.5138 13.0865 72.1873 12.5898C72.2581 12.5188 72.3645 12.4834 72.5063 12.4834C72.8607 12.4834 73.0379 12.6608 73.0379 13.0155C73.0379 13.1929 72.967 13.3348 72.8253 13.4413C72.1518 13.9025 71.3189 14.6298 70.3264 15.6231C69.334 16.6165 68.2706 17.7695 67.1364 19.0822C66.0022 20.3594 64.868 21.6898 63.7338 23.0734C62.635 24.457 61.6248 25.7697 60.7032 27.0114C59.8171 28.2531 59.126 29.3352 58.6298 30.2576C58.3816 30.7188 58.0804 31.3042 57.7259 32.0137C57.3715 32.7233 57.1942 33.3796 57.1942 33.9827C57.1942 34.444 57.336 34.8165 57.6196 35.1003C57.9031 35.3841 58.4171 35.526 59.1614 35.526C60.1184 35.526 61.2172 35.2954 62.4578 34.8342C63.7338 34.373 65.0275 33.6812 66.3389 32.7588C67.6504 31.8009 68.8555 30.6301 69.9543 29.2465C70.0606 29.1046 70.1846 29.0336 70.3264 29.0336C70.5391 29.0336 70.6986 29.1401 70.8049 29.3529C70.9467 29.5303 70.929 29.7254 70.7518 29.9383C69.6175 31.3929 68.3593 32.6169 66.9769 33.6102C65.5946 34.6036 64.2123 35.3486 62.8299 35.8453C61.483 36.342 60.2602 36.5903 59.1614 36.5903ZM58.6829 39.8897C56.9107 39.8897 55.4043 39.5172 54.1637 38.7722C52.9586 37.9917 52.3561 36.8564 52.3561 35.3664C52.3561 34.9761 52.5333 34.781 52.8877 34.781C53.2422 34.781 53.4194 34.9761 53.4194 35.3664C53.4194 36.3597 53.9334 37.1935 54.9612 37.8675C56.0246 38.5061 57.3715 38.8254 59.0019 38.8254C60.3488 38.8254 61.8198 38.5416 63.4148 37.974C65.0452 37.4063 66.6402 36.4662 68.1998 35.1535C68.2706 35.0825 68.377 35.0471 68.5188 35.0471C68.8732 35.0471 69.0504 35.2245 69.0504 35.5792C69.0504 35.7566 68.9795 35.8985 68.8378 36.005C67.3136 37.3176 65.6478 38.2933 63.8401 38.9319C62.0324 39.5705 60.3134 39.8897 58.6829 39.8897Z" fill="#003B5C"/>
<path d="M27.7544 41.4331C25.3088 41.4331 23.1466 40.9364 21.2681 39.9431C19.3895 38.9497 17.9186 37.5483 16.8552 35.739C15.8274 33.8941 15.3134 31.7123 15.3134 29.1934C15.3134 26.1778 15.9514 23.2686 17.2274 20.4659C18.5034 17.6277 20.2402 15.0201 22.4378 12.6431C24.6353 10.2661 27.0987 8.19067 29.8279 6.4168C32.5926 4.60745 35.4459 3.20608 38.3878 2.21271C41.3651 1.21934 44.2538 0.722656 47.0539 0.722656C49.7832 0.722656 52.0162 1.09517 53.7529 1.8402C55.4897 2.54975 56.7657 3.4899 57.5809 4.66066C58.3962 5.83142 58.8038 7.10861 58.8038 8.49223C58.8038 9.8049 58.467 11.1176 57.7936 12.4302C57.1202 13.7429 56.1277 14.9491 54.8163 16.0489C53.5403 17.1133 51.9984 17.9825 50.1908 18.6565C48.3831 19.2951 46.3628 19.6144 44.1298 19.6144C43.2791 19.6144 42.2866 19.5257 41.1524 19.3484C40.0182 19.171 38.9017 18.8694 37.8029 18.4437C36.7041 17.9825 35.7826 17.3794 35.0383 16.6343C34.3294 15.8893 33.9749 14.9314 33.9749 13.7606V13.7074C33.9749 13.3527 34.1521 13.1753 34.5066 13.1753C34.861 13.1753 35.0383 13.3349 35.0383 13.6542C35.18 14.8604 35.7471 15.8183 36.7396 16.5279C37.7675 17.2374 38.9549 17.7519 40.3018 18.0712C41.6841 18.3905 42.9601 18.5501 44.1298 18.5501C46.859 18.5501 49.2338 18.0357 51.2541 17.0068C53.3099 15.978 54.8872 14.7008 55.9859 13.1753C57.1202 11.6143 57.6873 10.0532 57.6873 8.49223C57.6873 7.286 57.3151 6.1862 56.5708 5.19283C55.8619 4.16398 54.7277 3.34799 53.1681 2.74488C51.6085 2.10628 49.5705 1.78699 47.0539 1.78699C44.3601 1.78699 41.5778 2.28367 38.7068 3.27704C35.8358 4.23493 33.0711 5.58308 30.4128 7.32147C27.7544 9.05987 25.3619 11.0821 23.2353 13.3881C21.144 15.6942 19.4781 18.1953 18.2376 20.8916C16.997 23.5524 16.3767 26.3197 16.3767 29.1934C16.3767 32.6347 17.4046 35.3665 19.4604 37.3887C21.5516 39.3754 24.3163 40.3688 27.7544 40.3688C29.952 40.3688 32.1141 40.0318 34.2408 39.3577C36.4029 38.6481 38.3523 37.6193 40.0891 36.2711C41.8259 34.8875 43.1905 33.1846 44.1829 31.1624C44.2893 30.9495 44.4133 30.6302 44.5551 30.2045C44.7323 29.7787 44.8918 29.353 45.0336 28.9273C45.1754 28.5016 45.2463 28.2177 45.2463 28.0758C45.2463 27.8984 45.2285 27.792 45.1931 27.7565C45.1931 27.6856 45.1931 27.6501 45.1931 27.6501C45.1222 27.5791 44.9804 27.5437 44.7678 27.5437C44.2361 27.5437 43.8285 27.7565 43.5449 28.1823C43.2614 28.5725 43.031 29.0515 42.8538 29.6191C42.6765 30.1513 42.4284 30.6302 42.1094 31.0559C41.2233 32.2622 40.0005 33.4329 38.4409 34.5682C36.9168 35.668 35.2864 36.5727 33.5496 37.2822C31.8128 37.9918 30.1646 38.3466 28.6051 38.3466C25.7695 38.3466 23.5365 37.5128 21.9061 35.8454C20.3111 34.1425 19.5136 31.8897 19.5136 29.0869C19.5136 26.6745 20.0807 24.2443 21.2149 21.7963C22.3491 19.3484 23.8555 17.0246 25.7341 14.825C27.6481 12.6254 29.7925 10.6741 32.1673 8.97118C34.542 7.23278 36.97 5.8669 39.4511 4.87353C41.9676 3.88016 44.3779 3.38347 46.6818 3.38347C50.1199 3.38347 52.5655 3.91563 54.0188 4.97996C55.5074 6.00881 56.2518 7.23278 56.2518 8.65188C56.2518 9.64526 55.9505 10.6564 55.3479 11.6852C54.7454 12.6786 53.8947 13.601 52.7959 14.4525C51.7326 15.3039 50.492 15.9957 49.0743 16.5279C47.6565 17.0601 46.1501 17.3261 44.5551 17.3261C43.988 17.3261 43.2259 17.2197 42.2689 17.0068C41.3119 16.794 40.3372 16.4924 39.3448 16.1022C38.3878 15.7119 37.5725 15.2152 36.8991 14.6121C36.2256 14.009 35.8889 13.3172 35.8889 12.5367V12.4302C35.8889 12.1109 36.0661 11.9513 36.4206 11.9513C36.7396 11.9513 36.9168 12.0932 36.9523 12.377C37.0586 12.9092 37.3953 13.4059 37.9624 13.8671C38.5295 14.3283 39.2207 14.754 40.0359 15.1443C40.8511 15.499 41.6664 15.7829 42.4816 15.9957C43.2968 16.1731 43.988 16.2618 44.5551 16.2618C46.4336 16.2618 48.1704 15.8716 49.7654 15.0911C51.3959 14.3105 52.7073 13.3349 53.6998 12.1642C54.6922 10.9934 55.1884 9.84038 55.1884 8.7051C55.1884 7.56982 54.5327 6.57645 53.2213 5.72499C51.9453 4.87353 49.7654 4.4478 46.6818 4.4478C44.4842 4.4478 42.1803 4.92674 39.7701 5.88464C37.3599 6.84253 35.0205 8.1552 32.7521 9.82264C30.4836 11.4901 28.4279 13.3881 26.5848 15.5168C24.7416 17.61 23.2707 19.8273 22.1719 22.1688C21.1086 24.5103 20.5769 26.8164 20.5769 29.0869C20.5769 31.5704 21.2858 33.5571 22.7036 35.0472C24.1214 36.5372 26.0885 37.2822 28.6051 37.2822C29.6684 37.2822 30.8558 37.0694 32.1673 36.6436C33.5141 36.1824 34.8433 35.5793 36.1548 34.8343C37.4662 34.0538 38.6359 33.1846 39.6638 32.2267C40.6916 31.2688 41.4183 30.2932 41.8436 29.2998C42.1626 28.5903 42.4816 27.9517 42.8006 27.384C43.1196 26.7809 43.7753 26.4793 44.7678 26.4793C45.7957 26.4793 46.3096 27.0115 46.3096 28.0758C46.3096 28.3242 46.221 28.6967 46.0438 29.1934C45.902 29.6901 45.7425 30.169 45.5653 30.6302C45.388 31.0914 45.2463 31.4285 45.1399 31.6413C44.112 33.8054 42.6588 35.6148 40.7803 37.0694C38.9371 38.524 36.8814 39.606 34.6129 40.3156C32.3445 41.0606 30.0583 41.4331 27.7544 41.4331Z" fill="#003B5C"/>
</svg>
