<svg width="18" height="18" viewBox="0 0 18 18" fill="none" xmlns="http://www.w3.org/2000/svg">
<path d="M1 4.2C1 2.6912 1 1.9376 1.4688 1.4688C1.9376 1 2.6912 1 4.2 1C5.7088 1 6.4624 1 6.9312 1.4688C7.4 1.9376 7.4 2.6912 7.4 4.2V5.8C7.4 7.3088 7.4 8.0624 6.9312 8.5312C6.4624 9 5.7088 9 4.2 9C2.6912 9 1.9376 9 1.4688 8.5312C1 8.0624 1 7.3088 1 5.8V4.2ZM1 14.6C1 13.8544 1 13.4816 1.1216 13.188C1.20201 12.9937 1.31992 12.8172 1.46858 12.6686C1.61724 12.5199 1.79374 12.402 1.988 12.3216C2.2816 12.2 2.6544 12.2 3.4 12.2H5C5.7456 12.2 6.1184 12.2 6.412 12.3216C6.60626 12.402 6.78276 12.5199 6.93142 12.6686C7.08008 12.8172 7.19799 12.9937 7.2784 13.188C7.4 13.4816 7.4 13.8544 7.4 14.6C7.4 15.3456 7.4 15.7184 7.2784 16.012C7.19799 16.2063 7.08008 16.3828 6.93142 16.5314C6.78276 16.6801 6.60626 16.798 6.412 16.8784C6.1184 17 5.7456 17 5 17H3.4C2.6544 17 2.2816 17 1.988 16.8784C1.79374 16.798 1.61724 16.6801 1.46858 16.5314C1.31992 16.3828 1.20201 16.2063 1.1216 16.012C1 15.7184 1 15.3456 1 14.6ZM10.6 12.2C10.6 10.6912 10.6 9.9376 11.0688 9.4688C11.5376 9 12.2912 9 13.8 9C15.3088 9 16.0624 9 16.5312 9.4688C17 9.9376 17 10.6912 17 12.2V13.8C17 15.3088 17 16.0624 16.5312 16.5312C16.0624 17 15.3088 17 13.8 17C12.2912 17 11.5376 17 11.0688 16.5312C10.6 16.0624 10.6 15.3088 10.6 13.8V12.2ZM10.6 3.4C10.6 2.6544 10.6 2.2816 10.7216 1.988C10.802 1.79374 10.9199 1.61724 11.0686 1.46858C11.2172 1.31992 11.3937 1.20201 11.588 1.1216C11.8816 1 12.2544 1 13 1H14.6C15.3456 1 15.7184 1 16.012 1.1216C16.2063 1.20201 16.3828 1.31992 16.5314 1.46858C16.6801 1.61724 16.798 1.79374 16.8784 1.988C17 2.2816 17 2.6544 17 3.4C17 4.1456 17 4.5184 16.8784 4.812C16.798 5.00626 16.6801 5.18276 16.5314 5.33142C16.3828 5.48008 16.2063 5.59799 16.012 5.6784C15.7184 5.8 15.3456 5.8 14.6 5.8H13C12.2544 5.8 11.8816 5.8 11.588 5.6784C11.3937 5.59799 11.2172 5.48008 11.0686 5.33142C10.9199 5.18276 10.802 5.00626 10.7216 4.812C10.6 4.5184 10.6 4.1456 10.6 3.4Z" stroke="white" stroke-width="1.5" stroke-linecap="round" stroke-linejoin="round"/>
</svg>
