<svg width="28" height="28" viewBox="0 0 28 28" fill="none" xmlns="http://www.w3.org/2000/svg">
<path d="M18.9467 4.08331H9.02999C7.48289 4.08331 5.99916 4.69789 4.9052 5.79186C3.81124 6.88582 3.19666 8.36955 3.19666 9.91665V18.0833C3.19666 18.8494 3.34754 19.6079 3.64069 20.3156C3.93384 21.0234 4.36352 21.6664 4.9052 22.2081C5.99916 23.3021 7.48289 23.9166 9.02999 23.9166H18.9467C19.7127 23.9166 20.4712 23.7658 21.179 23.4726C21.8867 23.1795 22.5298 22.7498 23.0714 22.2081C23.6131 21.6664 24.0428 21.0234 24.336 20.3156C24.6291 19.6079 24.78 18.8494 24.78 18.0833V9.91665C24.78 9.1506 24.6291 8.39206 24.336 7.68433C24.0428 6.97659 23.6131 6.33353 23.0714 5.79186C22.5298 5.25018 21.8867 4.8205 21.179 4.52735C20.4712 4.2342 19.7127 4.08331 18.9467 4.08331Z" stroke="#1D1B20" stroke-width="1.75" stroke-linecap="round" stroke-linejoin="round"/>
<path d="M3.48834 19.8333L6.69668 16.1C7.11649 15.683 7.66747 15.4239 8.25637 15.3665C8.84527 15.3091 9.43591 15.4569 9.92834 15.785C10.4208 16.113 11.0114 16.2608 11.6003 16.2034C12.1892 16.146 12.7402 15.8869 13.16 15.47L15.8783 12.7516C16.6594 11.9679 17.6936 11.4872 18.7962 11.3953C19.8989 11.3034 20.9983 11.6063 21.8983 12.25L24.8033 14.5016M9.32168 11.865C9.576 11.865 9.82784 11.8149 10.0628 11.7176C10.2978 11.6202 10.5113 11.4776 10.6911 11.2977C10.8709 11.1179 11.0136 10.9044 11.1109 10.6694C11.2082 10.4345 11.2583 10.1826 11.2583 9.92831C11.2583 9.67398 11.2082 9.42214 11.1109 9.18717C11.0136 8.95221 10.8709 8.73871 10.6911 8.55887C10.5113 8.37904 10.2978 8.23638 10.0628 8.13906C9.82784 8.04173 9.576 7.99164 9.32168 7.99164C8.80804 7.99164 8.31544 8.19568 7.95225 8.55887C7.58905 8.92207 7.38501 9.41467 7.38501 9.92831C7.38501 10.4419 7.58905 10.9345 7.95225 11.2977C8.31544 11.6609 8.80804 11.865 9.32168 11.865Z" stroke="#1D1B20" stroke-width="1.75" stroke-linecap="round" stroke-linejoin="round"/>
</svg>
