<svg width="43" height="55" viewBox="0 0 43 55" fill="none" xmlns="http://www.w3.org/2000/svg">
<path d="M2.65049 39.364C2.36576 39.364 2.13799 39.193 1.96716 38.851C1.73938 38.509 1.73938 38.1955 1.96716 37.9105C3.10604 36.5996 4.15951 35.2317 5.12756 33.8067C6.09561 32.3818 7.0352 30.9569 7.9463 29.5319C9.4838 27.2521 11.1636 24.8012 12.9859 22.1793C14.865 19.5574 16.8581 16.964 18.965 14.3992C21.1289 11.8343 23.3497 9.4974 25.6275 7.3885C27.9053 5.2226 30.2115 3.48419 32.5462 2.17325C34.5393 1.0903 36.2761 0.548828 37.7566 0.548828C39.2372 0.548828 40.3476 1.0333 41.0879 2.00226C41.8851 2.91421 42.2837 4.11116 42.2837 5.59309C42.2837 6.27706 42.1983 6.98952 42.0274 7.73048C41.9135 8.41445 41.6858 9.15542 41.3441 9.95338C41.1733 10.3524 40.5184 11.2358 39.3795 12.6038C38.2976 13.9147 36.9309 15.5391 35.2795 17.477C33.6282 19.3579 31.8629 21.3243 29.9837 23.3762C28.1615 25.4281 26.3962 27.3946 24.6879 29.2755C22.9796 31.1564 21.499 32.7238 20.2463 33.9777C19.0504 35.2317 18.2817 36.0011 17.94 36.2861C17.7692 36.4571 17.5984 36.5426 17.4275 36.5426C16.8011 36.5426 16.4879 36.2006 16.4879 35.5167C16.4879 35.3457 16.6018 35.1462 16.8296 34.9182C17.1713 34.6332 17.94 33.8637 19.1358 32.6098C20.3317 31.3559 21.7838 29.8169 23.4921 27.993C25.2004 26.1691 26.9657 24.2597 28.7879 22.2648C30.6101 20.2129 32.3184 18.275 33.9129 16.4511C35.5643 14.5702 36.9309 12.9742 38.0129 11.6633C39.0948 10.3524 39.6927 9.55439 39.8066 9.26941C40.376 7.95847 40.6608 6.70454 40.6608 5.5076C40.6608 4.53864 40.4045 3.76918 39.892 3.1992C39.4365 2.57223 38.7247 2.25874 37.7566 2.25874C36.5608 2.25874 35.1087 2.74322 33.4004 3.71218C31.1796 4.96612 28.9587 6.64754 26.7379 8.75644C24.5171 10.8083 22.3532 13.1167 20.2463 15.6816C18.1393 18.1895 16.1747 20.7259 14.3525 23.2907C12.5303 25.8556 10.8789 28.2495 9.39838 30.4724C8.43033 31.8973 7.46227 33.3508 6.49422 34.8327C5.52617 36.3146 4.4727 37.7111 3.33382 39.022C3.16298 39.25 2.93521 39.364 2.65049 39.364ZM11.4484 49.6235C9.6831 49.6235 8.43033 49.253 7.69005 48.512C7.00672 47.7711 6.66506 46.8591 6.66506 45.7762C6.66506 44.6362 6.9213 43.4108 7.4338 42.0998C8.00324 40.7319 8.57269 39.5635 9.14213 38.5945C9.99629 37.1126 11.1637 35.3457 12.6442 33.2938C14.1248 31.2419 15.7477 29.1045 17.5129 26.8816C19.3352 24.6017 21.1574 22.4073 22.9796 20.2984C24.8587 18.1895 26.624 16.3371 28.2754 14.7412C29.9268 13.0882 31.2934 11.8628 32.3754 11.0648C32.4893 10.9508 32.6601 10.8938 32.8879 10.8938C33.4573 10.8938 33.742 11.1788 33.742 11.7488C33.742 12.0338 33.6282 12.2618 33.4004 12.4328C32.3184 13.1737 30.9803 14.3422 29.3858 15.9381C27.7914 17.534 26.083 19.3864 24.2608 21.4953C22.4386 23.5472 20.6164 25.6846 18.7942 27.9075C17.0289 30.1304 15.406 32.2393 13.9254 34.2342C12.5018 36.2291 11.3914 37.9675 10.5942 39.4495C10.1956 40.1904 9.71157 41.1309 9.14213 42.2708C8.57269 43.4108 8.28797 44.4652 8.28797 45.4342C8.28797 46.1752 8.51574 46.7736 8.97129 47.2296C9.42685 47.6856 10.2525 47.9136 11.4484 47.9136C12.9859 47.9136 14.7511 47.5431 16.7442 46.8021C18.7942 46.0612 20.8726 44.9497 22.9796 43.4678C25.0865 41.9289 27.0226 40.048 28.7879 37.8251C28.9587 37.5971 29.158 37.4831 29.3858 37.4831C29.7275 37.4831 29.9837 37.6541 30.1546 37.996C30.3823 38.281 30.3539 38.5945 30.0691 38.9365C28.2469 41.2734 26.2254 43.2398 24.0046 44.8357C21.7838 46.4316 19.5629 47.6286 17.3421 48.4266C15.1782 49.2245 13.2136 49.6235 11.4484 49.6235ZM10.6796 54.9242C7.83241 54.9242 5.41228 54.3258 3.41923 53.1288C1.48313 51.8749 0.515076 50.051 0.515076 47.6571C0.515076 47.0301 0.799796 46.7166 1.36924 46.7166C1.93868 46.7166 2.2234 47.0301 2.2234 47.6571C2.2234 49.253 3.0491 50.5924 4.70048 51.6754C6.40881 52.7013 8.57269 53.2143 11.1921 53.2143C13.356 53.2143 15.7192 52.7583 18.2817 51.8464C20.9011 50.9344 23.4636 49.424 25.9692 47.3151C26.083 47.2011 26.2539 47.1441 26.4817 47.1441C27.0511 47.1441 27.3358 47.4291 27.3358 47.9991C27.3358 48.2841 27.2219 48.512 26.9942 48.683C24.5455 50.7919 21.8692 52.3594 18.965 53.3853C16.0609 54.4113 13.2991 54.9242 10.6796 54.9242Z" fill="#003B5C"/>
</svg>
