<svg width="43" height="56" viewBox="0 0 43 56" fill="none" xmlns="http://www.w3.org/2000/svg">
<rect width="43" height="56" fill="#CFCCCC"/>
<path d="M2.65055 39.4743C2.36583 39.4743 2.13805 39.3033 1.96722 38.9614C1.73944 38.6194 1.73944 38.3059 1.96722 38.0209C3.1061 36.71 4.15957 35.342 5.12762 33.9171C6.09567 32.4922 7.03526 31.0672 7.94637 29.6423C9.48386 27.3624 11.1637 24.9115 12.9859 22.2896C14.8651 19.6678 16.8581 17.0744 18.9651 14.5095C21.129 11.9446 23.3498 9.60775 25.6276 7.49885C27.9053 5.33295 30.2116 3.59454 32.5463 2.2836C34.5393 1.20066 36.2761 0.65918 37.7567 0.65918C39.2372 0.65918 40.3476 1.14366 41.0879 2.11261C41.8851 3.02457 42.2837 4.22151 42.2837 5.70344C42.2837 6.38741 42.1983 7.09987 42.0275 7.84084C41.9136 8.52481 41.6858 9.26577 41.3442 10.0637C41.1733 10.4627 40.5185 11.3462 39.3796 12.7141C38.2976 14.025 36.931 15.6495 35.2796 17.5874C33.6282 19.4683 31.8629 21.4347 29.9838 23.4866C28.1616 25.5385 26.3963 27.5049 24.688 29.3858C22.9796 31.2667 21.4991 32.8341 20.2463 34.0881C19.0505 35.342 18.2817 36.1115 17.9401 36.3965C17.7692 36.5675 17.5984 36.653 17.4276 36.653C16.8012 36.653 16.488 36.311 16.488 35.627C16.488 35.456 16.6019 35.2565 16.8297 35.0285C17.1713 34.7436 17.9401 33.9741 19.1359 32.7202C20.3317 31.4662 21.7838 29.9273 23.4921 28.1034C25.2005 26.2795 26.9657 24.3701 28.788 22.3751C30.6102 20.3232 32.3185 18.3853 33.9129 16.5614C35.5643 14.6805 36.931 13.0846 38.0129 11.7736C39.0949 10.4627 39.6928 9.66475 39.8067 9.37976C40.3761 8.06882 40.6608 6.81489 40.6608 5.61795C40.6608 4.64899 40.4046 3.87953 39.8921 3.30955C39.4365 2.68258 38.7247 2.3691 37.7567 2.3691C36.5608 2.3691 35.1088 2.85357 33.4004 3.82253C31.1796 5.07647 28.9588 6.75789 26.738 8.86679C24.5171 10.9187 22.3533 13.2271 20.2463 15.792C18.1394 18.2998 16.1748 20.8362 14.3526 23.4011C12.5304 25.966 10.879 28.3599 9.39844 30.5828C8.43039 32.0077 7.46234 33.4611 6.49428 34.9431C5.52623 36.425 4.47276 37.8214 3.33388 39.1323C3.16304 39.3603 2.93527 39.4743 2.65055 39.4743ZM11.4484 49.7338C9.68316 49.7338 8.43039 49.3634 7.69011 48.6224C7.00678 47.8814 6.66512 46.9695 6.66512 45.8865C6.66512 44.7466 6.92137 43.5211 7.43386 42.2102C8.00331 40.8423 8.57275 39.6738 9.14219 38.7049C9.99635 37.2229 11.1637 35.456 12.6443 33.4041C14.1248 31.3522 15.7477 29.2148 17.513 26.9919C19.3352 24.712 21.1574 22.5176 22.9796 20.4087C24.8588 18.2998 26.6241 16.4474 28.2755 14.8515C29.9268 13.1986 31.2935 11.9731 32.3754 11.1752C32.4893 11.0612 32.6602 11.0042 32.8879 11.0042C33.4574 11.0042 33.7421 11.2892 33.7421 11.8592C33.7421 12.1441 33.6282 12.3721 33.4004 12.5431C32.3185 13.2841 30.9803 14.4525 29.3859 16.0484C27.7914 17.6444 26.0831 19.4968 24.2609 21.6057C22.4387 23.6576 20.6165 25.795 18.7942 28.0179C17.029 30.2408 15.4061 32.3497 13.9255 34.3446C12.5019 36.3395 11.3915 38.0779 10.5943 39.5598C10.1957 40.3008 9.71163 41.2412 9.14219 42.3812C8.57275 43.5211 8.28803 44.5756 8.28803 45.5445C8.28803 46.2855 8.5158 46.884 8.97136 47.34C9.42691 47.7959 10.2526 48.0239 11.4484 48.0239C12.9859 48.0239 14.7512 47.6534 16.7443 46.9125C18.7942 46.1715 20.8727 45.0601 22.9796 43.5781C25.0866 42.0392 27.0227 40.1583 28.788 37.9354C28.9588 37.7074 29.1581 37.5934 29.3859 37.5934C29.7275 37.5934 29.9838 37.7644 30.1546 38.1064C30.3824 38.3914 30.3539 38.7049 30.0692 39.0469C28.247 41.3837 26.2255 43.3501 24.0046 44.9461C21.7838 46.542 19.563 47.7389 17.3422 48.5369C15.1783 49.3349 13.2137 49.7338 11.4484 49.7338ZM10.6797 55.0346C7.83248 55.0346 5.41234 54.4361 3.41929 53.2392C1.48319 51.9852 0.515137 50.1613 0.515137 47.7674C0.515137 47.1405 0.799857 46.827 1.3693 46.827C1.93874 46.827 2.22346 47.1405 2.22346 47.7674C2.22346 49.3634 3.04916 50.7028 4.70054 51.7857C6.40887 52.8117 8.57275 53.3247 11.1922 53.3247C13.3561 53.3247 15.7193 52.8687 18.2817 51.9567C20.9012 51.0448 23.4637 49.5344 25.9692 47.4255C26.0831 47.3115 26.2539 47.2545 26.4817 47.2545C27.0512 47.2545 27.3359 47.5394 27.3359 48.1094C27.3359 48.3944 27.222 48.6224 26.9942 48.7934C24.5456 50.9023 21.8692 52.4697 18.9651 53.4957C16.0609 54.5216 13.2991 55.0346 10.6797 55.0346Z" fill="#003B5C" stroke="#003B5C"/>
</svg>
