<svg width="134" height="44" viewBox="0 0 134 44" fill="none" xmlns="http://www.w3.org/2000/svg">
<path d="M108.61 28.0807C108.166 28.0807 107.846 27.9141 107.652 27.5808C107.485 27.2475 107.374 26.9003 107.319 26.5392C107.263 25.817 107.319 24.9282 107.485 23.8728C107.652 22.7895 107.944 21.6369 108.36 20.4148C108.777 19.1927 109.346 18.0122 110.068 16.8734C110.124 16.7623 110.096 16.5957 109.985 16.3735C109.874 16.1235 109.555 15.943 109.027 15.8319C108.943 15.8041 108.86 15.7902 108.777 15.7902C108.693 15.7624 108.596 15.7485 108.485 15.7485C108.124 15.7485 107.749 15.8596 107.36 16.0818C106.999 16.2763 106.666 16.6373 106.36 17.1651C105.999 17.7761 105.499 18.6372 104.86 19.7482C104.249 20.8592 103.583 21.9007 102.861 22.8729C102.777 22.984 102.666 23.0395 102.527 23.0395C102.389 23.0395 102.277 22.9701 102.194 22.8312C102.083 22.6923 102.083 22.5396 102.194 22.3729C102.916 21.4008 103.583 20.3731 104.194 19.2899C104.805 18.2066 105.277 17.3595 105.61 16.7484C105.999 16.0818 106.444 15.6097 106.944 15.3319C107.444 15.0542 107.957 14.9153 108.485 14.9153C109.152 14.9153 109.735 15.0958 110.235 15.4569C110.735 15.7902 110.985 16.1929 110.985 16.6651C110.985 16.8595 110.915 17.0679 110.777 17.2901C109.832 18.8177 109.152 20.3731 108.735 21.9563C108.319 23.5395 108.11 24.8449 108.11 25.8726C108.11 26.4003 108.152 26.7614 108.235 26.9558C108.346 27.1503 108.485 27.2475 108.652 27.2475C108.902 27.2475 109.18 27.1086 109.485 26.8308C109.818 26.5253 110.096 26.2198 110.318 25.9143C110.568 25.581 110.707 25.3865 110.735 25.331C111.207 24.6644 111.679 23.8172 112.151 22.7896C112.624 21.7619 113.068 20.7064 113.485 19.6232C113.901 18.5399 114.262 17.6095 114.568 16.8318C114.79 16.2207 115.207 15.7624 115.818 15.4569C116.429 15.1236 117.04 14.9569 117.651 14.9569C118.179 14.9569 118.623 15.0819 118.984 15.3319C119.373 15.5819 119.567 15.9846 119.567 16.5401C119.567 16.6512 119.567 16.7623 119.567 16.8734C119.567 16.9568 119.54 17.0679 119.484 17.2067C119.429 17.4567 119.276 17.9428 119.026 18.6649C118.776 19.3871 118.498 20.1787 118.193 21.0397C117.887 21.873 117.609 22.6229 117.359 23.2895C117.109 23.9283 116.957 24.3172 116.901 24.4561C116.818 24.6227 116.707 24.706 116.568 24.706C116.429 24.706 116.304 24.6505 116.193 24.5394C116.109 24.4283 116.096 24.2894 116.151 24.1228C116.207 23.9839 116.346 23.595 116.568 22.9562C116.818 22.2896 117.082 21.5536 117.359 20.7481C117.665 19.9148 117.943 19.151 118.193 18.4566C118.443 17.7345 118.595 17.2623 118.651 17.0401C118.679 16.929 118.693 16.7901 118.693 16.6235C118.693 16.3179 118.595 16.1096 118.401 15.9985C118.206 15.8596 117.97 15.7902 117.693 15.7902C117.248 15.7902 116.776 15.9291 116.276 16.2068C115.804 16.4568 115.485 16.7762 115.318 17.1651C115.151 17.6095 114.901 18.2761 114.568 19.1649C114.235 20.0259 113.846 20.9703 113.401 21.998C112.985 22.9979 112.513 23.97 111.985 24.9144C111.457 25.8309 110.902 26.5948 110.318 27.2058C109.763 27.7891 109.193 28.0807 108.61 28.0807ZM102.236 26.7059C102.069 26.7059 101.944 26.6225 101.861 26.4559C101.75 26.2892 101.777 26.1365 101.944 25.9976C103 24.9699 103.805 24.0117 104.361 23.1229C104.944 22.234 105.583 21.1786 106.277 19.9565C106.36 19.8176 106.485 19.7482 106.652 19.7482C106.791 19.7482 106.916 19.8176 107.027 19.9565C107.138 20.0676 107.138 20.2065 107.027 20.3731C106.333 21.623 105.68 22.7062 105.069 23.6228C104.458 24.5394 103.611 25.5254 102.527 26.5809C102.444 26.6642 102.347 26.7059 102.236 26.7059ZM100.486 43.2043C99.8193 43.2043 99.1944 43.0099 98.6111 42.621C98 42.26 97.75 41.635 97.8611 40.7462C97.8611 40.4962 97.9861 40.3712 98.2361 40.3712C98.3472 40.3712 98.4583 40.4129 98.5694 40.4962C98.6527 40.5796 98.6805 40.6907 98.6527 40.8295C98.5972 41.3573 98.75 41.7461 99.111 41.9961C99.4443 42.2461 99.9026 42.3711 100.486 42.3711C101.847 42.3711 103.166 42.0239 104.444 41.3295C105.722 40.6629 106.916 39.7602 108.027 38.6214C109.166 37.4826 110.207 36.2189 111.152 34.8301C112.124 33.4413 112.957 32.0387 113.651 30.6222C114.374 29.2056 114.957 27.9002 115.401 26.7059C115.485 26.567 115.665 26.4142 115.943 26.2476C116.887 25.7476 117.804 25.1921 118.693 24.5811C119.609 23.97 120.387 23.234 121.026 22.3729C121.109 22.234 121.22 22.1646 121.359 22.1646C121.498 22.1646 121.623 22.2479 121.734 22.4146C121.845 22.5812 121.831 22.734 121.692 22.8729C120.887 23.9561 119.97 24.8171 118.943 25.456C117.943 26.0948 116.998 26.6503 116.109 27.1225C115.665 28.3168 115.082 29.6361 114.36 31.0804C113.637 32.5248 112.776 33.9552 111.777 35.3717C110.804 36.7882 109.721 38.0798 108.527 39.2464C107.36 40.4407 106.096 41.3989 104.736 42.1211C103.375 42.8432 101.958 43.2043 100.486 43.2043ZM108.235 30.8305C107.319 30.8305 106.569 30.6083 105.985 30.1639C105.43 29.7195 105.027 29.1501 104.777 28.4557C104.527 27.7613 104.416 27.0669 104.444 26.3726C104.444 26.0948 104.583 25.9559 104.86 25.9559C105.138 25.9559 105.277 26.0948 105.277 26.3726C105.249 27.3447 105.472 28.1918 105.944 28.914C106.444 29.6361 107.208 29.9972 108.235 29.9972C108.902 29.9972 109.61 29.65 110.36 28.9556C111.11 28.2613 111.846 27.3586 112.568 26.2476C113.318 25.1366 113.999 23.9561 114.61 22.7062C114.693 22.5396 114.818 22.4562 114.985 22.4562C115.123 22.4562 115.235 22.5118 115.318 22.6229C115.429 22.734 115.443 22.8729 115.36 23.0395C114.776 24.2339 114.096 25.4421 113.318 26.6642C112.54 27.8585 111.721 28.8584 110.86 29.6639C109.999 30.4416 109.124 30.8305 108.235 30.8305ZM100.694 40.2879C100.333 40.2879 99.9721 40.1768 99.611 39.9546C99.2221 39.7602 99.0277 39.4269 99.0277 38.9547C99.0277 38.8714 99.0416 38.7881 99.0694 38.7047C99.0694 38.6214 99.0833 38.5381 99.111 38.4548C99.2499 37.9548 99.611 37.3854 100.194 36.7466C100.75 36.1355 101.43 35.5106 102.236 34.8718C103.041 34.2607 103.833 33.7191 104.611 33.2469C105.416 32.7747 106.083 32.4414 106.61 32.247C106.638 32.2192 106.694 32.2053 106.777 32.2053C107.055 32.2053 107.194 32.3581 107.194 32.6636C107.194 32.8025 107.11 32.9136 106.944 32.9969C106.444 33.1914 105.819 33.5108 105.069 33.9552C104.347 34.3996 103.597 34.8995 102.819 35.455C102.069 36.0383 101.43 36.6077 100.903 37.1632C100.347 37.7465 100.014 38.2464 99.9026 38.6631C99.9026 38.6908 99.9026 38.7186 99.9026 38.7464C99.8748 38.8019 99.861 38.8436 99.861 38.8714C99.861 39.2602 100.125 39.4547 100.653 39.4547C101.43 39.4547 102.291 39.163 103.236 38.5797C104.208 38.0242 105.18 37.2882 106.152 36.3716C107.124 35.4828 108.013 34.5523 108.818 33.5802C109.652 32.6081 110.304 31.7054 110.777 30.8721C110.86 30.7333 110.985 30.6638 111.152 30.6638C111.29 30.6638 111.415 30.7194 111.527 30.8305C111.638 30.9693 111.638 31.1221 111.527 31.2888C111.054 32.122 110.388 33.0525 109.527 34.0802C108.693 35.1078 107.749 36.0939 106.694 37.0382C105.666 37.9826 104.624 38.7603 103.569 39.3713C102.541 39.9824 101.583 40.2879 100.694 40.2879Z" fill="#003B5C"/>
<path d="M92.3571 25.4976C92.2182 25.4976 92.0932 25.4282 91.9821 25.2893C91.8988 25.1226 91.9266 24.956 92.0655 24.7893C93.0654 23.6783 94.0375 22.7895 94.9819 22.1229C95.954 21.4563 97.0789 20.8175 98.3565 20.2064C98.8565 19.9842 99.3981 19.637 99.9814 19.1649C100.565 18.6927 100.856 18.1511 100.856 17.54C100.856 17.3178 100.773 17.1095 100.606 16.9151C100.467 16.7207 100.19 16.6234 99.7731 16.6234C99.5787 16.6234 99.3981 16.6373 99.2315 16.6651C99.0648 16.6651 98.8843 16.6651 98.6898 16.6651C97.7455 16.6651 96.815 16.5818 95.8984 16.4151C94.9819 16.2207 94.0653 16.1235 93.1487 16.1235C91.8433 16.1235 90.7045 16.4568 89.7323 17.1234C88.788 17.7622 88.3158 18.6094 88.3158 19.6648C88.3158 20.4148 88.5936 21.0952 89.1491 21.7063C89.2324 21.7896 89.2741 21.8868 89.2741 21.9979C89.2741 22.3035 89.1352 22.4562 88.8574 22.4562C88.7463 22.4562 88.6352 22.4007 88.5241 22.2896C87.802 21.5396 87.4409 20.6786 87.4409 19.7065C87.4409 18.7899 87.7048 17.9983 88.2325 17.3317C88.788 16.6651 89.4963 16.1513 90.3573 15.7902C91.2461 15.4291 92.1766 15.2486 93.1487 15.2486C94.2042 15.2486 95.2457 15.3736 96.2734 15.6235C97.3011 15.8457 98.3704 15.9013 99.4814 15.7902C100.231 15.7069 100.787 15.8318 101.148 16.1651C101.509 16.4984 101.69 16.9151 101.69 17.415C101.69 17.8594 101.551 18.3316 101.273 18.8316C100.995 19.3315 100.592 19.7898 100.065 20.2064C99.6203 20.5397 99.1343 20.8175 98.6065 21.0397C98.1066 21.2341 97.6066 21.4702 97.1067 21.748C96.5234 22.0535 95.8568 22.484 95.1068 23.0395C94.3847 23.5672 93.5653 24.3449 92.6487 25.3726C92.5654 25.4559 92.4682 25.4976 92.3571 25.4976ZM90.6906 21.2063C90.5795 21.2063 90.4823 21.1508 90.399 21.0397C90.0934 20.6508 89.9407 20.2064 89.9407 19.7065C89.9407 18.901 90.2323 18.2761 90.8156 17.8317C91.4266 17.3873 92.1904 17.1651 93.107 17.1651C93.9681 17.1651 94.9124 17.2623 95.9401 17.4567C96.9956 17.6511 97.8705 17.8039 98.5649 17.915C98.8148 17.9428 98.9398 18.0816 98.9398 18.3316C98.9398 18.6649 98.7871 18.8038 98.4815 18.7482C97.8427 18.6371 96.9956 18.4844 95.9401 18.29C94.9124 18.0955 93.9958 17.9983 93.1904 17.9983C91.5794 17.9983 90.7739 18.5677 90.7739 19.7065C90.7739 19.9565 90.8711 20.2342 91.0656 20.5397C91.1211 20.5953 91.1489 20.6786 91.1489 20.7897C91.1489 21.0675 90.9961 21.2063 90.6906 21.2063ZM89.0657 25.331C88.9269 25.331 88.8019 25.2615 88.6908 25.1226C88.6075 24.956 88.6352 24.7893 88.7741 24.6227C90.1351 23.2339 91.2739 22.1785 92.1904 21.4563C93.107 20.7342 93.8014 20.2481 94.2736 19.9981C94.7458 19.7481 94.9819 19.6232 94.9819 19.6232C95.0096 19.5954 95.0652 19.5815 95.1485 19.5815C95.4263 19.5815 95.5651 19.7343 95.5651 20.0398C95.5651 20.1787 95.4818 20.2898 95.3152 20.3731C95.3152 20.3731 95.1902 20.4425 94.9402 20.5814C94.6902 20.6925 94.3291 20.9147 93.857 21.248C93.3848 21.5813 92.7598 22.0674 91.9821 22.7062C91.2322 23.345 90.3573 24.1783 89.3574 25.206C89.2741 25.2893 89.1768 25.331 89.0657 25.331ZM96.4401 31.4554C95.329 31.4554 94.3153 31.2471 93.3987 30.8304C92.5099 30.4138 91.6766 29.9972 90.8989 29.5806C90.1212 29.1362 89.3296 28.914 88.5241 28.914C88.0242 28.914 87.677 29.0389 87.4826 29.2889C87.2881 29.5389 87.1909 29.775 87.1909 29.9972C87.1909 30.2749 87.2465 30.4555 87.3576 30.5388C87.4409 30.6221 87.4826 30.7193 87.4826 30.8304C87.4826 31.136 87.3437 31.2887 87.0659 31.2887C86.9548 31.2887 86.8437 31.2332 86.7326 31.1221C86.4271 30.8166 86.2743 30.4555 86.2743 30.0389C86.2743 29.4834 86.4826 29.0251 86.8993 28.664C87.3437 28.2751 87.9131 28.0807 88.6075 28.0807C89.3852 28.0807 90.2045 28.3029 91.0656 28.7473C91.9544 29.1917 92.8571 29.6361 93.7736 30.0805C94.6902 30.4971 95.579 30.7055 96.4401 30.7055C97.44 30.7055 98.2177 30.4138 98.7732 29.8305C99.3287 29.2195 99.6064 28.5668 99.6064 27.8724C99.6064 27.4835 99.5231 27.1086 99.3565 26.7475C99.1898 26.3586 98.9121 26.0253 98.5232 25.7476C98.4121 25.6643 98.3565 25.5532 98.3565 25.4143C98.3565 25.2754 98.426 25.1504 98.5649 25.0393C98.7315 24.9282 98.8843 24.9421 99.0231 25.081C99.5231 25.4698 99.8842 25.9142 100.106 26.4142C100.329 26.8864 100.44 27.3586 100.44 27.8307C100.44 28.7751 100.079 29.6222 99.3565 30.3722C98.6343 31.0943 97.6622 31.4554 96.4401 31.4554ZM97.315 28.914C96.5095 28.914 95.7596 28.789 95.0652 28.539C94.3986 28.2612 93.7459 27.9557 93.107 27.6224C92.496 27.2891 91.8433 26.9975 91.1489 26.7475C90.4545 26.4697 89.6907 26.3309 88.8574 26.3309C87.7464 26.3309 86.9271 26.567 86.3993 27.0391C85.8716 27.4835 85.6077 27.9279 85.6077 28.3723V28.4557C85.6077 28.7334 85.4689 28.8723 85.1911 28.8723C85.1078 28.8723 85.0245 28.8445 84.9411 28.789C84.83 28.7056 84.7745 28.6084 84.7745 28.4973C84.7745 27.6085 85.1633 26.8864 85.941 26.3309C86.7187 25.7754 87.7186 25.4976 88.9408 25.4976C89.774 25.4976 90.5378 25.6365 91.2322 25.9142C91.9544 26.1642 92.621 26.4559 93.232 26.7892C93.8709 27.1225 94.5236 27.428 95.1902 27.7057C95.8568 27.9557 96.565 28.0807 97.315 28.0807C97.6205 28.0807 97.7733 28.2196 97.7733 28.4973C97.7733 28.7751 97.6205 28.914 97.315 28.914Z" fill="#003B5C"/>
<path d="M81.0343 23.2895C80.8676 23.2895 80.7287 23.2201 80.6176 23.0812C80.5343 22.9423 80.5482 22.7895 80.6593 22.6229C81.4925 21.4008 81.9092 20.2203 81.9092 19.0816C81.9092 18.2761 81.6592 17.6234 81.1592 17.1234C80.6871 16.5957 79.9649 16.3318 78.9928 16.3318C77.5485 16.3318 76.1319 16.9706 74.7432 18.2483C73.3822 19.4982 71.9795 21.0675 70.5352 22.9562C70.4519 23.0395 70.3686 23.0812 70.2853 23.0812C70.1464 23.0812 70.0353 22.9979 69.952 22.8312C69.8409 22.6646 69.8409 22.4979 69.952 22.3313C70.8963 21.0814 71.8407 19.9426 72.785 18.9149C73.7294 17.8872 74.7015 17.0679 75.7014 16.4568C76.7291 15.8457 77.7984 15.5402 78.9095 15.5402C80.2982 15.5402 81.2842 15.8735 81.8675 16.5401C82.4508 17.2067 82.7424 18.0122 82.7424 18.9566C82.7424 19.651 82.6174 20.3592 82.3675 21.0814C82.1175 21.8035 81.7703 22.484 81.3259 23.1228C81.2426 23.234 81.1454 23.2895 81.0343 23.2895ZM73.535 28.4557C72.9517 28.4557 72.4934 28.2613 72.1601 27.8724C71.8546 27.4558 71.7018 26.928 71.7018 26.2892C71.7018 25.456 71.9518 24.5394 72.4517 23.5395C72.9517 22.5396 73.5905 21.5952 74.3682 20.7064C75.1737 19.7898 76.0069 19.0399 76.868 18.4566C77.729 17.8733 78.5067 17.5817 79.2011 17.5817C79.5899 17.5817 79.7844 17.7206 79.7844 17.9983C79.7844 18.1094 79.7427 18.2205 79.6594 18.3316C79.5761 18.415 79.465 18.4427 79.3261 18.415C78.7428 18.3594 78.0623 18.5955 77.2846 19.1232C76.5347 19.6509 75.7986 20.3314 75.0765 21.1647C74.3543 21.998 73.7433 22.8868 73.2433 23.8311C72.7711 24.7477 72.535 25.581 72.535 26.3309C72.535 26.692 72.6045 26.9975 72.7434 27.2475C72.8822 27.4974 73.1461 27.6224 73.535 27.6224C73.9794 27.6224 74.4515 27.4836 74.9515 27.2058C75.4514 26.9003 75.9097 26.5392 76.3264 26.1226C76.743 25.7059 77.0485 25.3171 77.2429 24.956C77.3263 24.8171 77.4374 24.7477 77.5762 24.7477C77.7151 24.7477 77.8401 24.8171 77.9512 24.956C78.0623 25.0671 78.0623 25.206 77.9512 25.3726C77.7012 25.7893 77.3402 26.2476 76.868 26.7475C76.3958 27.2197 75.8681 27.6224 75.2848 27.9557C74.7015 28.289 74.1182 28.4557 73.535 28.4557ZM80.5343 25.1227C79.6177 25.1227 78.8261 24.8449 78.1595 24.2894C77.4929 23.7339 77.1596 22.984 77.1596 22.0396C77.1596 21.7063 77.2013 21.3591 77.2846 20.998C77.3957 20.6092 77.5485 20.2065 77.7429 19.7898C77.8262 19.6232 77.9512 19.5398 78.1179 19.5398C78.2567 19.5398 78.3678 19.5954 78.4512 19.7065C78.5623 19.8176 78.5761 19.9565 78.4928 20.1231C78.3262 20.4564 78.2012 20.7758 78.1179 21.0814C78.0623 21.3869 78.0345 21.6785 78.0345 21.9563C78.0345 22.7062 78.2845 23.2895 78.7845 23.7061C79.2844 24.095 79.8816 24.2894 80.576 24.2894C81.187 24.2894 81.812 24.1366 82.4508 23.8311C83.0896 23.5256 83.6729 23.0395 84.2006 22.3729C84.284 22.2618 84.3812 22.2063 84.4923 22.2063C84.6311 22.2063 84.7561 22.2896 84.8672 22.4562C84.9783 22.5951 84.9783 22.734 84.8672 22.8729C84.2284 23.6506 83.5201 24.22 82.7424 24.581C81.9925 24.9421 81.2565 25.1227 80.5343 25.1227ZM73.4516 31.0804C72.2573 31.0804 71.2574 30.6916 70.4519 29.9139C69.6464 29.1084 69.2992 28.164 69.4103 27.0808C69.4103 26.8031 69.5492 26.6642 69.827 26.6642C69.9381 26.6642 70.0492 26.7197 70.1603 26.8308C70.2436 26.9142 70.2714 27.0253 70.2436 27.1641C70.188 27.8863 70.4658 28.5946 71.0768 29.2889C71.7157 29.9555 72.5212 30.2888 73.4933 30.2888C74.1321 30.2888 74.8126 30.0944 75.5348 29.7056C76.2569 29.3167 76.9791 28.664 77.7012 27.7474C77.7012 27.7474 77.7846 27.6363 77.9512 27.4141C78.1456 27.1919 78.3539 26.9558 78.5761 26.7058C78.7983 26.4281 78.9511 26.2059 79.0344 26.0392C79.1178 25.8726 79.2289 25.7893 79.3677 25.7893C79.5066 25.7893 79.6177 25.8587 79.701 25.9976C79.8121 26.1087 79.826 26.2476 79.7427 26.4142C79.5761 26.7475 79.3539 27.0669 79.0761 27.3725C78.7984 27.678 78.5484 27.9835 78.3262 28.289C77.5485 29.2889 76.7291 30.0111 75.8681 30.4555C75.0348 30.8721 74.2293 31.0804 73.4516 31.0804Z" fill="#003B5C"/>
<path d="M66.3367 23.2895C66.1701 23.2895 66.0312 23.2201 65.9201 23.0812C65.8368 22.9423 65.8507 22.7895 65.9618 22.6229C66.795 21.4008 67.2117 20.2203 67.2117 19.0816C67.2117 18.2761 66.9617 17.6234 66.4617 17.1234C65.9896 16.5957 65.2674 16.3318 64.2953 16.3318C62.851 16.3318 61.4344 16.9706 60.0457 18.2483C58.6847 19.4982 57.282 21.0675 55.8377 22.9562C55.7544 23.0395 55.6711 23.0812 55.5877 23.0812C55.4489 23.0812 55.3378 22.9979 55.2544 22.8312C55.1433 22.6646 55.1433 22.4979 55.2544 22.3313C56.1988 21.0814 57.1432 19.9426 58.0875 18.9149C59.0319 17.8872 60.004 17.0679 61.0039 16.4568C62.0316 15.8457 63.1009 15.5402 64.2119 15.5402C65.6007 15.5402 66.5867 15.8735 67.17 16.5401C67.7533 17.2067 68.0449 18.0122 68.0449 18.9566C68.0449 19.651 67.9199 20.3592 67.67 21.0814C67.42 21.8035 67.0728 22.484 66.6284 23.1228C66.5451 23.234 66.4478 23.2895 66.3367 23.2895ZM58.8374 28.4557C58.2542 28.4557 57.7959 28.2613 57.4626 27.8724C57.157 27.4558 57.0043 26.928 57.0043 26.2892C57.0043 25.456 57.2543 24.5394 57.7542 23.5395C58.2542 22.5396 58.893 21.5952 59.6707 20.7064C60.4762 19.7898 61.3094 19.0399 62.1705 18.4566C63.0315 17.8733 63.8092 17.5817 64.5036 17.5817C64.8924 17.5817 65.0869 17.7206 65.0869 17.9983C65.0869 18.1094 65.0452 18.2205 64.9619 18.3316C64.8785 18.415 64.7674 18.4427 64.6286 18.415C64.0453 18.3594 63.3648 18.5955 62.5871 19.1232C61.8372 19.6509 61.1011 20.3314 60.379 21.1647C59.6568 21.998 59.0458 22.8868 58.5458 23.8311C58.0736 24.7477 57.8375 25.581 57.8375 26.3309C57.8375 26.692 57.907 26.9975 58.0459 27.2475C58.1847 27.4974 58.4486 27.6224 58.8374 27.6224C59.2818 27.6224 59.754 27.4836 60.254 27.2058C60.7539 26.9003 61.2122 26.5392 61.6288 26.1226C62.0455 25.7059 62.351 25.3171 62.5454 24.956C62.6288 24.8171 62.7399 24.7477 62.8787 24.7477C63.0176 24.7477 63.1426 24.8171 63.2537 24.956C63.3648 25.0671 63.3648 25.206 63.2537 25.3726C63.0037 25.7893 62.6426 26.2476 62.1705 26.7475C61.6983 27.2197 61.1706 27.6224 60.5873 27.9557C60.004 28.289 59.4207 28.4557 58.8374 28.4557ZM65.8368 25.1227C64.9202 25.1227 64.1286 24.8449 63.462 24.2894C62.7954 23.7339 62.4621 22.984 62.4621 22.0396C62.4621 21.7063 62.5038 21.3591 62.5871 20.998C62.6982 20.6092 62.851 20.2065 63.0454 19.7898C63.1287 19.6232 63.2537 19.5398 63.4203 19.5398C63.5592 19.5398 63.6703 19.5954 63.7537 19.7065C63.8648 19.8176 63.8786 19.9565 63.7953 20.1231C63.6287 20.4564 63.5037 20.7758 63.4203 21.0814C63.3648 21.3869 63.337 21.6785 63.337 21.9563C63.337 22.7062 63.587 23.2895 64.087 23.7061C64.5869 24.095 65.1841 24.2894 65.8785 24.2894C66.4895 24.2894 67.1145 24.1366 67.7533 23.8311C68.3921 23.5256 68.9754 23.0395 69.5031 22.3729C69.5864 22.2618 69.6837 22.2063 69.7948 22.2063C69.9336 22.2063 70.0586 22.2896 70.1697 22.4562C70.2808 22.5951 70.2808 22.734 70.1697 22.8729C69.5309 23.6506 68.8226 24.22 68.0449 24.581C67.295 24.9421 66.5589 25.1227 65.8368 25.1227ZM58.7541 31.0804C57.5598 31.0804 56.5599 30.6916 55.7544 29.9139C54.9489 29.1084 54.6017 28.164 54.7128 27.0808C54.7128 26.8031 54.8517 26.6642 55.1295 26.6642C55.2406 26.6642 55.3517 26.7197 55.4628 26.8308C55.5461 26.9142 55.5739 27.0253 55.5461 27.1641C55.4905 27.8863 55.7683 28.5946 56.3793 29.2889C57.0182 29.9555 57.8236 30.2888 58.7958 30.2888C59.4346 30.2888 60.1151 30.0944 60.8373 29.7056C61.5594 29.3167 62.2816 28.664 63.0037 27.7474C63.0037 27.7474 63.087 27.6363 63.2537 27.4141C63.4481 27.1919 63.6564 26.9558 63.8786 26.7058C64.1008 26.4281 64.2536 26.2059 64.3369 26.0392C64.4203 25.8726 64.5314 25.7893 64.6702 25.7893C64.8091 25.7893 64.9202 25.8587 65.0035 25.9976C65.1146 26.1087 65.1285 26.2476 65.0452 26.4142C64.8785 26.7475 64.6563 27.0669 64.3786 27.3725C64.1008 27.678 63.8509 27.9835 63.6287 28.289C62.851 29.2889 62.0316 30.0111 61.1706 30.4555C60.3373 30.8721 59.5318 31.0804 58.7541 31.0804Z" fill="#003B5C"/>
<path d="M42.0692 23.0812C41.9303 23.0812 41.8192 22.9979 41.7359 22.8312C41.6248 22.6646 41.6248 22.5118 41.7359 22.3729C42.2914 21.7341 42.8052 21.0675 43.2774 20.3731C43.7496 19.6787 44.2078 18.9844 44.6523 18.29C45.4022 17.179 46.2215 15.9846 47.1104 14.707C48.0269 13.4293 48.9991 12.1655 50.0267 10.9157C51.0822 9.66578 52.1654 8.52699 53.2765 7.49931C54.3875 6.44385 55.5123 5.59671 56.6511 4.95788C57.6233 4.43016 58.4704 4.16629 59.1926 4.16629C59.9147 4.16629 60.4563 4.40238 60.8174 4.87456C61.2063 5.31896 61.4007 5.90224 61.4007 6.6244C61.4007 6.9577 61.359 7.30489 61.2757 7.66596C61.2202 7.99927 61.1091 8.36034 60.9424 8.7492C60.8591 8.94362 60.5397 9.37414 59.9842 10.0407C59.4564 10.6796 58.7898 11.4712 57.9843 12.4155C57.1789 13.3321 56.3178 14.2903 55.4012 15.2903C54.5124 16.2902 53.6514 17.2484 52.8182 18.165C51.9849 19.0816 51.2627 19.8454 50.6517 20.4564C50.0684 21.0675 49.6934 21.4425 49.5268 21.5813C49.4435 21.6647 49.3601 21.7063 49.2768 21.7063C48.9713 21.7063 48.8185 21.5397 48.8185 21.2064C48.8185 21.123 48.8741 21.0258 48.9852 20.9147C49.1518 20.7759 49.5268 20.4009 50.1101 19.7898C50.6934 19.1788 51.4016 18.4289 52.2349 17.54C53.0681 16.6512 53.9292 15.7208 54.818 14.7486C55.7068 13.7487 56.54 12.8044 57.3177 11.9156C58.1232 10.999 58.7898 10.2213 59.3176 9.58245C59.8453 8.94362 60.1369 8.55477 60.1925 8.41589C60.4702 7.77706 60.6091 7.16601 60.6091 6.58273C60.6091 6.11056 60.4841 5.73559 60.2341 5.45784C60.0119 5.15231 59.6647 4.99955 59.1926 4.99955C58.6093 4.99955 57.901 5.23563 57.0678 5.70781C55.9845 6.31887 54.9013 7.13824 53.8181 8.16592C52.7348 9.16582 51.6794 10.2907 50.6517 11.5406C49.624 12.7627 48.6658 13.9987 47.777 15.2486C46.8882 16.4985 46.0827 17.665 45.3605 18.7483C44.8883 19.4426 44.4162 20.1509 43.944 20.8731C43.4718 21.5952 42.958 22.2757 42.4025 22.9145C42.3191 23.0256 42.208 23.0812 42.0692 23.0812ZM46.3604 28.0807C45.4994 28.0807 44.8883 27.9002 44.5273 27.5391C44.194 27.178 44.0273 26.7336 44.0273 26.2059C44.0273 25.6504 44.1523 25.0532 44.4023 24.4144C44.68 23.7478 44.9578 23.1784 45.2355 22.7062C45.6522 21.9841 46.2215 21.123 46.9437 20.1231C47.6659 19.1232 48.4575 18.0817 49.3185 16.9984C50.2073 15.8874 51.0961 14.8181 51.9849 13.7904C52.9015 12.7627 53.7625 11.86 54.568 11.0823C55.3735 10.2768 56.0401 9.67967 56.5678 9.29081C56.6234 9.23526 56.7067 9.20749 56.8178 9.20749C57.0955 9.20749 57.2344 9.34637 57.2344 9.62412C57.2344 9.76299 57.1789 9.87409 57.0678 9.95742C56.54 10.3185 55.8873 10.8879 55.1096 11.6656C54.3319 12.4433 53.4986 13.346 52.6098 14.3737C51.721 15.3736 50.8322 16.4152 49.9434 17.4984C49.0824 18.5816 48.2908 19.6093 47.5686 20.5814C46.8743 21.5536 46.3327 22.4007 45.9438 23.1229C45.7494 23.4839 45.5133 23.9422 45.2355 24.4977C44.9578 25.0532 44.8189 25.5671 44.8189 26.0393C44.8189 26.4003 44.93 26.692 45.1522 26.9142C45.3744 27.1364 45.7771 27.2475 46.3604 27.2475C47.1104 27.2475 47.9714 27.0669 48.9435 26.7059C49.9434 26.3448 50.9572 25.8032 51.9849 25.081C53.0126 24.3311 53.9569 23.4145 54.818 22.3313C54.9013 22.2202 54.9985 22.1646 55.1096 22.1646C55.2763 22.1646 55.4012 22.2479 55.4846 22.4146C55.5957 22.5535 55.5818 22.7062 55.4429 22.8729C54.5541 24.0117 53.5681 24.9699 52.4849 25.7476C51.4016 26.5253 50.3184 27.1086 49.2352 27.4975C48.1797 27.8863 47.2215 28.0807 46.3604 28.0807ZM45.9855 30.6638C44.5967 30.6638 43.4163 30.3722 42.4441 29.7889C41.4998 29.1779 41.0276 28.289 41.0276 27.1225C41.0276 26.817 41.1665 26.6642 41.4442 26.6642C41.722 26.6642 41.8608 26.817 41.8608 27.1225C41.8608 27.9002 42.2636 28.5529 43.0691 29.0806C43.9023 29.5806 44.9578 29.8306 46.2354 29.8306C47.2909 29.8306 48.4436 29.6084 49.6934 29.164C50.9711 28.7196 52.221 27.9835 53.4431 26.9558C53.4986 26.9003 53.582 26.8725 53.6931 26.8725C53.9708 26.8725 54.1097 27.0114 54.1097 27.2891C54.1097 27.428 54.0542 27.5391 53.9431 27.6224C52.7487 28.6501 51.4433 29.4139 50.0267 29.9139C48.6102 30.4138 47.2631 30.6638 45.9855 30.6638Z" fill="#003B5C"/>
<path d="M21.7491 31.872C19.8326 31.872 18.1383 31.4832 16.6662 30.7055C15.1941 29.9278 14.0415 28.8307 13.2082 27.4141C12.4027 25.9698 12 24.2616 12 22.2896C12 19.9287 12.5 17.6511 13.4999 15.4569C14.4998 13.2349 15.8608 11.1934 17.5828 9.33247C19.3049 7.47153 21.2353 5.84668 23.3739 4.45792C25.5404 3.04138 27.7763 1.94426 30.0816 1.16656C32.4148 0.388853 34.6784 0 36.8727 0C39.0114 0 40.7612 0.29164 42.1222 0.87492C43.4832 1.43042 44.4831 2.16647 45.1219 3.08305C45.7607 3.99963 46.0802 4.99954 46.0802 6.08277C46.0802 7.11045 45.8163 8.13813 45.2886 9.16581C44.7608 10.1935 43.9831 11.1379 42.9555 11.9989C41.9555 12.8321 40.7473 13.5126 39.3308 14.0404C37.9143 14.5403 36.3311 14.7903 34.5812 14.7903C33.9146 14.7903 33.1369 14.7209 32.2481 14.582C31.3593 14.4431 30.4844 14.207 29.6234 13.8737C28.7623 13.5126 28.0402 13.0405 27.4569 12.4572C26.9014 11.8739 26.6236 11.124 26.6236 10.2074V10.1657C26.6236 9.88797 26.7625 9.74909 27.0403 9.74909C27.318 9.74909 27.4569 9.87408 27.4569 10.1241C27.568 11.0684 28.0124 11.8183 28.7901 12.3739C29.5956 12.9294 30.5261 13.3321 31.5815 13.5821C32.6647 13.832 33.6646 13.957 34.5812 13.957C36.7199 13.957 38.5809 13.5543 40.164 12.7488C41.775 11.9433 43.011 10.9434 43.872 9.74909C44.7608 8.52699 45.2052 7.30488 45.2052 6.08277C45.2052 5.13841 44.9136 4.27738 44.3303 3.49968C43.7748 2.69419 42.886 2.05536 41.6639 1.58319C40.4418 1.08323 38.8447 0.833258 36.8727 0.833258C34.7618 0.833258 32.5814 1.22211 30.3316 1.99981C28.0818 2.74974 25.9154 3.8052 23.8322 5.16618C21.7491 6.52717 19.8743 8.11036 18.2078 9.91575C16.569 11.7211 15.2636 13.6793 14.2915 15.7902C13.3193 17.8733 12.8333 20.0398 12.8333 22.2896C12.8333 24.9838 13.6387 27.1225 15.2497 28.7057C16.8884 30.2611 19.0549 31.0388 21.7491 31.0388C23.4712 31.0388 25.1654 30.7749 26.832 30.2472C28.5262 29.6917 30.0539 28.8862 31.4149 27.8307C32.7758 26.7475 33.8452 25.4143 34.6229 23.8311C34.7062 23.6645 34.8034 23.4145 34.9145 23.0812C35.0534 22.7479 35.1784 22.4146 35.2895 22.0813C35.4006 21.748 35.4561 21.5258 35.4561 21.4147C35.4561 21.2758 35.4423 21.1925 35.4145 21.1647C35.4145 21.1091 35.4145 21.0814 35.4145 21.0814C35.3589 21.0258 35.2478 20.998 35.0812 20.998C34.6646 20.998 34.3451 21.1647 34.1229 21.498C33.9007 21.8035 33.7202 22.1785 33.5813 22.6229C33.4424 23.0395 33.248 23.4145 32.998 23.7478C32.3037 24.6921 31.3454 25.6087 30.1233 26.4975C28.929 27.3586 27.6513 28.0668 26.2903 28.6223C24.9293 29.1778 23.6378 29.4556 22.4157 29.4556C20.1937 29.4556 18.4438 28.8029 17.1662 27.4974C15.9163 26.1642 15.2914 24.4005 15.2914 22.2063C15.2914 20.3176 15.7358 18.415 16.6246 16.4985C17.5134 14.582 18.6938 12.7627 20.1659 11.0406C21.6658 9.31858 23.3462 7.79094 25.2071 6.45773C27.068 5.09675 28.9706 4.0274 30.9149 3.2497C32.8869 2.47199 34.7757 2.08314 36.581 2.08314C39.2752 2.08314 41.1917 2.49977 42.3305 3.33302C43.4971 4.1385 44.0803 5.09675 44.0803 6.20776C44.0803 6.98546 43.8443 7.77705 43.3721 8.58253C42.8999 9.36024 42.2333 10.0824 41.3723 10.749C40.539 11.4156 39.5669 11.9572 38.4559 12.3739C37.3449 12.7905 36.1644 12.9988 34.9145 12.9988C34.4701 12.9988 33.873 12.9155 33.123 12.7488C32.3731 12.5822 31.6093 12.3461 30.8316 12.0405C30.0816 11.735 29.4428 11.3462 28.9151 10.874C28.3874 10.4018 28.1235 9.86019 28.1235 9.24914V9.16581C28.1235 8.91584 28.2624 8.79085 28.5401 8.79085C28.7901 8.79085 28.929 8.90195 28.9568 9.12415C29.0401 9.54078 29.3039 9.92963 29.7483 10.2907C30.1927 10.6518 30.7344 10.9851 31.3732 11.2906C32.012 11.5684 32.6509 11.7906 33.2897 11.9572C33.9285 12.0961 34.4701 12.1655 34.9145 12.1655C36.3866 12.1655 37.7476 11.86 38.9975 11.249C40.2751 10.6379 41.3028 9.87408 42.0805 8.9575C42.8582 8.04092 43.2471 7.13822 43.2471 6.24942C43.2471 5.36061 42.7332 4.58291 41.7056 3.9163C40.7057 3.2497 38.9975 2.9164 36.581 2.9164C34.859 2.9164 33.0536 3.29136 31.1649 4.04129C29.2762 4.79122 27.443 5.8189 25.6654 7.12434C23.8878 8.42977 22.2768 9.91574 20.8325 11.5823C19.3882 13.221 18.2355 14.9569 17.3745 16.7901C16.5412 18.6233 16.1246 20.4287 16.1246 22.2063C16.1246 24.1505 16.6801 25.7059 17.7911 26.8725C18.9021 28.0391 20.4437 28.6223 22.4157 28.6223C23.249 28.6223 24.1794 28.4557 25.2071 28.1224C26.2626 27.7613 27.3041 27.2891 28.3318 26.7058C29.3595 26.0948 30.2761 25.4143 31.0816 24.6644C31.887 23.9144 32.4564 23.1506 32.7897 22.3729C33.0397 21.8174 33.2897 21.3175 33.5397 20.8731C33.7896 20.4009 34.3035 20.1648 35.0812 20.1648C35.8867 20.1648 36.2894 20.5814 36.2894 21.4147C36.2894 21.6091 36.22 21.9007 36.0811 22.2896C35.97 22.6784 35.845 23.0534 35.7061 23.4145C35.5672 23.7756 35.4561 24.0394 35.3728 24.2061C34.5673 25.9004 33.4286 27.3169 31.9565 28.4557C30.5122 29.5945 28.9012 30.4416 27.1236 30.9971C25.346 31.5804 23.5545 31.872 21.7491 31.872Z" fill="#003B5C"/>
</svg>
