<svg width="18" height="18" viewBox="0 0 18 18" fill="none" xmlns="http://www.w3.org/2000/svg">
<path d="M10.7139 0.0776367V1.95264H14.7056L10.8778 5.82714L10.2714 6.44237C9.84633 6.12445 9.3833 5.8607 8.89301 5.65721C8.11915 5.33723 7.28993 5.1725 6.45251 5.17239C5.6165 5.17239 4.78597 5.33739 4.01361 5.65726C3.24025 5.97765 2.53745 6.44699 1.9452 7.03857C1.35359 7.6308 0.884213 8.33358 0.563796 9.10693C0.243874 9.87943 0.0775615 10.7114 0.0775146 11.5474C0.0776043 12.3843 0.242358 13.213 0.56239 13.9863C0.88322 14.7598 1.35308 15.4626 1.9452 16.0547C2.53743 16.6464 3.24021 17.1157 4.01356 17.4362C4.78597 17.756 5.61645 17.9224 6.45247 17.9224C7.28858 17.9224 8.12056 17.756 8.89297 17.4361C9.6663 17.1157 10.3691 16.6463 10.9613 16.0547C11.5529 15.4625 12.0223 14.7597 12.3427 13.9863C12.6627 13.213 12.8274 12.3843 12.8275 11.5474C12.8273 10.71 12.6626 9.8808 12.3426 9.10693C12.1464 8.63412 11.8941 8.1866 11.5912 7.774L12.2108 7.14559L16.0472 3.26082V7.28621H17.9222V0.0776367H10.7139ZM6.45261 7.04739C7.04369 7.04811 7.62892 7.16455 8.17527 7.39014C8.71808 7.615 9.21884 7.95029 9.63425 8.36575C10.0497 8.78106 10.385 9.28192 10.6099 9.82468C10.8355 10.371 10.9519 10.9563 10.9527 11.5473C10.9527 12.1348 10.8347 12.7258 10.6099 13.2686C10.3851 13.8113 10.0512 14.3135 9.63584 14.729C9.22034 15.1444 8.71812 15.4796 8.17531 15.7044C7.62897 15.9301 7.04375 16.0465 6.45265 16.0473C5.86517 16.0473 5.27422 15.9294 4.73141 15.7045C4.18561 15.4778 3.68949 15.1464 3.27101 14.729C2.85365 14.3105 2.52226 13.8143 2.29555 13.2685C2.07064 12.7257 1.9527 12.1348 1.9527 11.5473C1.95344 10.9563 2.06989 10.371 2.2955 9.82468L2.29986 9.81437C2.52467 9.27559 2.85814 8.77703 3.27101 8.3642C3.68389 7.95146 4.18245 7.61926 4.72133 7.3945L4.73155 7.39009C5.27436 7.16532 5.86522 7.04729 6.4527 7.04734L6.45261 7.04739Z" fill="#8F8F8F"/>
</svg>
