<svg width="33" height="33" viewBox="0 0 33 33" fill="none" xmlns="http://www.w3.org/2000/svg">
<path d="M24.4004 16.7919C24.0587 16.7919 23.774 16.6494 23.5462 16.3644C23.3754 16.0794 23.4039 15.7659 23.6316 15.424C25.34 12.9161 26.1941 10.4937 26.1941 8.1568C26.1941 6.50388 25.6816 5.16444 24.6566 4.13849C23.6886 3.05554 22.208 2.51407 20.215 2.51407C17.2539 2.51407 14.3497 3.82501 11.5025 6.44688C8.71227 9.01176 5.83658 12.2321 2.87548 16.1079C2.70465 16.2789 2.53382 16.3644 2.36299 16.3644C2.07827 16.3644 1.85049 16.1934 1.67966 15.8514C1.45188 15.5094 1.45188 15.1675 1.67966 14.8255C3.61576 12.2606 5.55187 9.92372 7.48797 7.81482C9.42407 5.70592 11.4171 4.0245 13.4671 2.77056C15.574 1.51662 17.7664 0.889648 20.0442 0.889648C22.8914 0.889648 24.9129 1.57362 26.1087 2.94155C27.3046 4.30948 27.9025 5.96241 27.9025 7.90031C27.9025 9.32525 27.6462 10.7787 27.1337 12.2606C26.6212 13.7425 25.9094 15.139 24.9983 16.4499C24.8275 16.6779 24.6282 16.7919 24.4004 16.7919ZM9.02546 27.3934C7.82963 27.3934 6.89005 26.9944 6.20672 26.1964C5.58034 25.3415 5.26714 24.2585 5.26714 22.9476C5.26714 21.2377 5.77964 19.3568 6.80463 17.3049C7.82963 15.253 9.13935 13.3151 10.7338 11.4911C12.3852 9.61023 14.0935 8.07131 15.8588 6.87436C17.624 5.67742 19.2185 5.07895 20.6421 5.07895C21.4393 5.07895 21.8379 5.36393 21.8379 5.9339C21.8379 6.16189 21.7525 6.38988 21.5817 6.61787C21.4108 6.78886 21.183 6.84586 20.8983 6.78887C19.7025 6.67487 18.3074 7.15935 16.7129 8.24229C15.1754 9.32524 13.6664 10.7217 12.1859 12.4316C10.7053 14.1415 9.45254 15.9654 8.42755 17.9033C7.4595 19.7842 6.97547 21.4942 6.97547 23.0331C6.97547 23.774 7.11783 24.401 7.40255 24.914C7.68727 25.427 8.22824 25.6835 9.02546 25.6835C9.93657 25.6835 10.9046 25.3985 11.9296 24.8285C12.9546 24.2015 13.8942 23.4606 14.7484 22.6056C15.6025 21.7507 16.2289 20.9527 16.6275 20.2117C16.7983 19.9267 17.0261 19.7842 17.3108 19.7842C17.5956 19.7842 17.8518 19.9267 18.0796 20.2117C18.3074 20.4397 18.3074 20.7247 18.0796 21.0667C17.5671 21.9216 16.8268 22.8621 15.8588 23.888C14.8907 24.857 13.8088 25.6835 12.6129 26.3674C11.4171 27.0514 10.2213 27.3934 9.02546 27.3934ZM23.3754 20.5537C21.4962 20.5537 19.8733 19.9837 18.5067 18.8438C17.14 17.7038 16.4567 16.1649 16.4567 14.227C16.4567 13.543 16.5421 12.8306 16.7129 12.0896C16.9407 11.2916 17.2539 10.4652 17.6525 9.61023C17.8233 9.26825 18.0796 9.09725 18.4213 9.09725C18.706 9.09725 18.9338 9.21125 19.1046 9.43924C19.3324 9.66723 19.3608 9.95221 19.19 10.2942C18.8483 10.9782 18.5921 11.6336 18.4213 12.2606C18.3074 12.8876 18.2504 13.486 18.2504 14.056C18.2504 15.5949 18.7629 16.7919 19.7879 17.6468C20.8129 18.4448 22.0372 18.8438 23.4608 18.8438C24.7136 18.8438 25.9948 18.5303 27.3046 17.9033C28.6143 17.2764 29.8101 16.2789 30.892 14.911C31.0629 14.683 31.2622 14.569 31.49 14.569C31.7747 14.569 32.0309 14.74 32.2587 15.082C32.4865 15.367 32.4865 15.6519 32.2587 15.9369C30.949 17.5328 29.4969 18.7013 27.9025 19.4423C26.365 20.1832 24.8559 20.5537 23.3754 20.5537ZM8.85462 32.7796C6.40602 32.7796 4.35604 31.9817 2.70466 30.3857C1.05327 28.7328 0.341469 26.7949 0.569246 24.572C0.569246 24.002 0.853966 23.7171 1.42341 23.7171C1.65119 23.7171 1.87896 23.831 2.10674 24.059C2.27757 24.23 2.33451 24.458 2.27757 24.743C2.16368 26.2249 2.73312 27.6784 3.9859 29.1033C5.29561 30.4712 6.94699 31.1552 8.94004 31.1552C10.2498 31.1552 11.6449 30.7562 13.1254 29.9583C14.606 29.1603 16.0865 27.8209 17.5671 25.9399C17.5671 25.9399 17.7379 25.712 18.0796 25.256C18.4782 24.8 18.9053 24.3155 19.3608 23.8025C19.8164 23.2326 20.1296 22.7766 20.3004 22.4346C20.4713 22.0926 20.699 21.9216 20.9837 21.9216C21.2685 21.9216 21.4962 22.0641 21.6671 22.3491C21.8948 22.5771 21.9233 22.8621 21.7525 23.2041C21.4108 23.888 20.9553 24.5435 20.3858 25.1705C19.8164 25.7975 19.3039 26.4244 18.8483 27.0514C17.2539 29.1033 15.574 30.5852 13.8088 31.4972C12.1004 32.3521 10.4491 32.7796 8.85462 32.7796Z" fill="#003B5C"/>
</svg>
