<svg width="33" height="32" viewBox="0 0 33 32" fill="none" xmlns="http://www.w3.org/2000/svg">
<rect width="33" height="32" fill="#CFCCCC"/>
<path d="M24.5364 15.9022C24.1947 15.9022 23.91 15.7597 23.6822 15.4748C23.5114 15.1898 23.5399 14.8763 23.7676 14.5343C25.476 12.0264 26.3301 9.60404 26.3301 7.26715C26.3301 5.61423 25.8176 4.27479 24.7926 3.24884C23.8246 2.16589 22.344 1.62442 20.351 1.62442C17.3899 1.62442 14.4857 2.93536 11.6385 5.55723C8.84825 8.12211 5.97257 11.3425 3.01147 15.2183C2.84064 15.3893 2.6698 15.4748 2.49897 15.4748C2.21425 15.4748 1.98648 15.3038 1.81565 14.9618C1.58787 14.6198 1.58787 14.2778 1.81565 13.9358C3.75175 11.371 5.68785 9.03407 7.62395 6.92517C9.56006 4.81627 11.5531 3.13485 13.6031 1.88091C15.71 0.62697 17.9024 0 20.1802 0C23.0274 0 25.0489 0.683969 26.2447 2.0519C27.4405 3.41984 28.0385 5.07276 28.0385 7.01067C28.0385 8.4356 27.7822 9.88902 27.2697 11.371C26.7572 12.8529 26.0454 14.2493 25.1343 15.5603C24.9635 15.7882 24.7642 15.9022 24.5364 15.9022ZM9.16145 26.5037C7.96562 26.5037 7.02604 26.1047 6.34271 25.3068C5.71632 24.4518 5.40313 23.3689 5.40313 22.0579C5.40313 20.348 5.91562 18.4671 6.94062 16.4152C7.96562 14.3633 9.27533 12.4254 10.8698 10.6015C12.5212 8.72058 14.2295 7.18166 15.9948 5.98471C17.76 4.78777 19.3545 4.1893 20.7781 4.1893C21.5753 4.1893 21.9739 4.47428 21.9739 5.04425C21.9739 5.27224 21.8885 5.50024 21.7176 5.72822C21.5468 5.89922 21.319 5.95621 21.0343 5.89922C19.8385 5.78522 18.4434 6.2697 16.8489 7.35264C15.3114 8.43559 13.8024 9.83203 12.3219 11.5419C10.8413 13.2519 9.58853 15.0758 8.56353 17.0137C7.59548 18.8946 7.11145 20.6045 7.11145 22.1434C7.11145 22.8844 7.25381 23.5114 7.53853 24.0243C7.82325 24.5373 8.36423 24.7938 9.16145 24.7938C10.0726 24.7938 11.0406 24.5088 12.0656 23.9389C13.0906 23.3119 14.0302 22.5709 14.8843 21.716C15.7385 20.861 16.3649 20.063 16.7635 19.3221C16.9343 19.0371 17.1621 18.8946 17.4468 18.8946C17.7315 18.8946 17.9878 19.0371 18.2156 19.3221C18.4433 19.5501 18.4433 19.835 18.2156 20.177C17.7031 21.032 16.9628 21.9724 15.9948 22.9984C15.0267 23.9673 13.9448 24.7938 12.7489 25.4778C11.5531 26.1617 10.3573 26.5037 9.16145 26.5037ZM23.5114 19.6641C21.6322 19.6641 20.0093 19.0941 18.6427 17.9541C17.276 16.8142 16.5927 15.2753 16.5927 13.3374C16.5927 12.6534 16.6781 11.9409 16.8489 11.2C17.0767 10.402 17.3899 9.57554 17.7885 8.72058C17.9593 8.3786 18.2156 8.2076 18.5572 8.2076C18.842 8.2076 19.0697 8.3216 19.2406 8.54959C19.4683 8.77758 19.4968 9.06256 19.326 9.40455C18.9843 10.0885 18.7281 10.744 18.5572 11.371C18.4433 11.9979 18.3864 12.5964 18.3864 13.1664C18.3864 14.7053 18.8989 15.9022 19.9239 16.7572C20.9489 17.5552 22.1732 17.9541 23.5968 17.9541C24.8496 17.9541 26.1308 17.6407 27.4405 17.0137C28.7503 16.3867 29.9461 15.3893 31.028 14.0213C31.1989 13.7933 31.3982 13.6793 31.6259 13.6793C31.9107 13.6793 32.1669 13.8503 32.3947 14.1923C32.6225 14.4773 32.6225 14.7623 32.3947 15.0473C31.085 16.6432 29.6329 17.8116 28.0385 18.5526C26.501 19.2936 24.9919 19.6641 23.5114 19.6641ZM8.99061 31.89C6.54201 31.89 4.49202 31.092 2.84064 29.4961C1.18925 27.8432 0.477456 25.9053 0.705233 23.6824C0.705233 23.1124 0.989946 22.8274 1.55939 22.8274C1.78716 22.8274 2.01495 22.9414 2.24272 23.1694C2.41356 23.3404 2.4705 23.5684 2.41356 23.8534C2.29967 25.3353 2.86911 26.7887 4.12188 28.2136C5.4316 29.5816 7.08299 30.2656 9.07604 30.2656C10.3858 30.2656 11.7809 29.8666 13.2614 29.0686C14.742 28.2706 16.2225 26.9312 17.7031 25.0503C17.7031 25.0503 17.8739 24.8223 18.2156 24.3663C18.6142 23.9104 19.0413 23.4259 19.4968 22.9129C19.9524 22.3429 20.2656 21.887 20.4364 21.545C20.6072 21.203 20.835 21.032 21.1197 21.032C21.4045 21.032 21.6322 21.1745 21.8031 21.4595C22.0308 21.6875 22.0593 21.9724 21.8885 22.3144C21.5468 22.9984 21.0913 23.6539 20.5218 24.2808C19.9524 24.9078 19.4399 25.5348 18.9843 26.1617C17.3899 28.2136 15.71 29.6956 13.9448 30.6075C12.2364 31.4625 10.585 31.89 8.99061 31.89Z" fill="#003B5C"/>
</svg>
