<svg width="20" height="24" viewBox="0 0 20 24" fill="none" xmlns="http://www.w3.org/2000/svg">
<path d="M3.38616 7.3335H16.615C16.9514 7.33346 17.2839 7.40617 17.5896 7.54665C17.8953 7.68713 18.167 7.89205 18.3861 8.14737C18.6051 8.40268 18.7664 8.70236 18.8588 9.02585C18.9513 9.34933 18.9726 9.68898 18.9215 10.0215L17.4573 19.5322C17.3302 20.3587 16.9114 21.1124 16.2767 21.6568C15.6419 22.2012 14.8332 22.5004 13.997 22.5002H6.003C5.16696 22.5001 4.35856 22.2008 3.72406 21.6564C3.08957 21.112 2.67091 20.3585 2.54383 19.5322L1.07966 10.0215C1.02853 9.68898 1.0499 9.34933 1.14232 9.02585C1.23474 8.70236 1.39602 8.40268 1.6151 8.14737C1.83418 7.89205 2.10588 7.68713 2.41158 7.54665C2.71728 7.40617 3.04973 7.33346 3.38616 7.3335Z" stroke="white" stroke-width="1.5" stroke-linecap="round" stroke-linejoin="round"/>
<path d="M6.5 10.8333V5C6.5 4.07174 6.86875 3.1815 7.52513 2.52513C8.1815 1.86875 9.07174 1.5 10 1.5C10.9283 1.5 11.8185 1.86875 12.4749 2.52513C13.1313 3.1815 13.5 4.07174 13.5 5V10.8333" stroke="white" stroke-width="1.5" stroke-linecap="round" stroke-linejoin="round"/>
</svg>
