<svg width="26" height="22" viewBox="0 0 26 22" fill="none" xmlns="http://www.w3.org/2000/svg">
<path d="M6 6.33301H10.6667" stroke="white" stroke-width="1.75" stroke-linecap="round" stroke-linejoin="round"/>
<path d="M23.3052 7.5H20.2695C18.187 7.5 16.5 9.06683 16.5 11C16.5 12.9332 18.1882 14.5 20.2683 14.5H23.3052C23.4032 14.5 23.451 14.5 23.4918 14.4977C24.1218 14.4592 24.6235 13.9937 24.6643 13.4092C24.6667 13.3718 24.6667 13.3263 24.6667 13.2365V8.7635C24.6667 8.67367 24.6667 8.62817 24.6643 8.59083C24.6223 8.00633 24.1218 7.54083 23.4918 7.50233C23.4522 7.5 23.4032 7.5 23.3052 7.5Z" stroke="white" stroke-width="1.5"/>
<path d="M23.4592 7.49984C23.3682 5.31584 23.0765 3.9765 22.1327 3.03384C20.7665 1.6665 18.5662 1.6665 14.1667 1.6665H10.6667C6.26718 1.6665 4.06684 1.6665 2.70068 3.03384C1.33451 4.40117 1.33334 6.60034 1.33334 10.9998C1.33334 15.3993 1.33334 17.5997 2.70068 18.9658C4.06801 20.332 6.26718 20.3332 10.6667 20.3332H14.1667C18.5662 20.3332 20.7665 20.3332 22.1327 18.9658C23.0765 18.0232 23.3693 16.6838 23.4592 14.4998" stroke="white" stroke-width="1.5"/>
<path d="M19.9895 11H20.0012" stroke="white" stroke-width="2.33333" stroke-linecap="round" stroke-linejoin="round"/>
</svg>
