<svg width="18" height="20" viewBox="0 0 18 20" fill="none" xmlns="http://www.w3.org/2000/svg">
<path d="M0.748302 14.1587H3.81216L2.89802 18.6989C2.87793 18.8049 2.86788 18.9125 2.86802 19.0204C2.86802 19.5124 3.20916 19.7837 3.68144 19.7837C4.16359 19.7837 4.51502 19.5222 4.61573 19.0302L5.59973 14.1587H10.3509L9.43716 18.6989C9.40716 18.7992 9.3973 18.9201 9.3973 19.0204C9.3973 19.5124 9.73887 19.7837 10.221 19.7837C10.7032 19.7837 11.0546 19.5222 11.1553 19.0302L12.1286 14.1587H15.7144C16.2669 14.1587 16.6487 13.7571 16.6487 13.2145C16.6487 12.7727 16.3474 12.4109 15.8953 12.4109H12.4899L13.5557 7.10737H17.0713C17.6242 7.10737 18.0056 6.7058 18.0056 6.16323C18.0056 5.72137 17.7043 5.35965 17.2522 5.35965H13.9072L14.7309 1.3118C14.7407 1.25137 14.7609 1.12065 14.7609 0.990368C14.7609 0.49794 14.4094 0.216797 13.9273 0.216797C13.365 0.216797 13.1139 0.52794 13.0132 1.00023L12.1294 5.35965H7.37787L8.20159 1.3118C8.21144 1.25137 8.23159 1.12065 8.23159 0.990368C8.23159 0.49794 7.86987 0.216797 7.39802 0.216797C6.82544 0.216797 6.56402 0.52794 6.47359 1.00023L5.58987 5.35965H2.29544C1.74259 5.35965 1.36116 5.78137 1.36116 6.3338C1.36116 6.78594 1.66244 7.10737 2.11459 7.10737H5.23844L4.17344 12.4109H0.929159C0.376302 12.4109 -0.00512695 12.8327 -0.00512695 13.3851C-0.00512695 13.8372 0.296159 14.1587 0.748302 14.1587ZM5.95116 12.4109L7.02645 7.10737H11.7772L10.7023 12.4109H5.95116Z" fill="#8F8F8F"/>
</svg>
