<svg width="51" height="59" viewBox="0 0 51 59" fill="none" xmlns="http://www.w3.org/2000/svg">
<path d="M23.0719 27.6266C22.1608 27.6266 21.506 27.2846 21.1074 26.6006C20.7657 25.9167 20.5379 25.2042 20.424 24.4632C20.3101 22.9813 20.424 21.1574 20.7657 18.9915C21.1074 16.7686 21.7053 14.4032 22.5594 11.8953C23.4136 9.38745 24.581 6.96506 26.0615 4.62817C26.1754 4.40019 26.1185 4.0582 25.8907 3.60222C25.6629 3.08925 25.008 2.71876 23.9261 2.49077C23.7553 2.43378 23.5844 2.40528 23.4136 2.40528C23.2428 2.34828 23.0435 2.31978 22.8157 2.31978C22.0754 2.31978 21.3067 2.54777 20.5094 3.00375C19.7692 3.40273 19.0858 4.14369 18.4595 5.22664C17.7192 6.48058 16.6942 8.2475 15.3845 10.5274C14.1317 12.8073 12.765 14.9447 11.2845 16.9396C11.1136 17.1676 10.8859 17.2816 10.6011 17.2816C10.3164 17.2816 10.0886 17.1391 9.9178 16.8541C9.69003 16.5691 9.69003 16.2556 9.9178 15.9136C11.3984 13.9187 12.765 11.8098 14.0178 9.58694C15.2706 7.36404 16.2386 5.62563 16.922 4.37168C17.7192 3.00375 18.6303 2.0348 19.6553 1.46482C20.6803 0.89485 21.7337 0.609863 22.8157 0.609863C24.1824 0.609863 25.3782 0.980346 26.4032 1.72131C27.4282 2.40528 27.9407 3.23174 27.9407 4.20069C27.9407 4.59967 27.7983 5.02715 27.5136 5.48313C25.5775 8.61798 24.1824 11.8098 23.3282 15.0587C22.474 18.3075 22.0469 20.9864 22.0469 23.0953C22.0469 24.1782 22.1324 24.9192 22.3032 25.3182C22.531 25.7172 22.8157 25.9167 23.1574 25.9167C23.6699 25.9167 24.2393 25.6317 24.8657 25.0617C25.549 24.4347 26.1185 23.8078 26.574 23.1808C27.0865 22.4968 27.3712 22.0978 27.4282 21.9839C28.3962 20.6159 29.3643 18.8775 30.3323 16.7686C31.3004 14.6597 32.2115 12.4938 33.0657 10.2709C33.9198 8.04801 34.6601 6.1386 35.2865 4.54268C35.7421 3.28874 36.5962 2.34828 37.849 1.72131C39.1018 1.03734 40.3545 0.69536 41.6073 0.69536C42.6893 0.69536 43.6004 0.951848 44.3406 1.46482C45.1379 1.9778 45.5365 2.80426 45.5365 3.94421C45.5365 4.1722 45.5365 4.40019 45.5365 4.62817C45.5365 4.79917 45.4795 5.02715 45.3656 5.31214C45.2518 5.82512 44.9386 6.82257 44.4261 8.3045C43.9136 9.78643 43.3441 11.4108 42.7177 13.1778C42.0913 14.8877 41.5219 16.4266 41.0094 17.7946C40.4969 19.1055 40.1837 19.9035 40.0698 20.1884C39.899 20.5304 39.6712 20.7014 39.3865 20.7014C39.1018 20.7014 38.8455 20.5874 38.6177 20.3594C38.4469 20.1314 38.4184 19.8465 38.5323 19.5045C38.6462 19.2195 38.9309 18.4215 39.3865 17.1106C39.899 15.7426 40.4399 14.2322 41.0094 12.5793C41.6358 10.8694 42.2052 9.30196 42.7177 7.87702C43.2302 6.39509 43.5434 5.42614 43.6573 4.97016C43.7143 4.74217 43.7427 4.45718 43.7427 4.11519C43.7427 3.48822 43.5434 3.06075 43.1448 2.83276C42.7462 2.54777 42.2622 2.40528 41.6927 2.40528C40.7816 2.40528 39.8136 2.69027 38.7886 3.26024C37.8205 3.77322 37.1657 4.42868 36.824 5.22664C36.4823 6.1386 35.9698 7.50654 35.2865 9.33045C34.6032 11.0974 33.8059 13.0353 32.8948 15.1442C32.0407 17.1961 31.0726 19.191 29.9907 21.1289C28.9087 23.0098 27.7698 24.5772 26.574 25.8312C25.4351 27.0281 24.2678 27.6266 23.0719 27.6266ZM10.0032 24.8052C9.66156 24.8052 9.40531 24.6342 9.23448 24.2922C9.0067 23.9503 9.06365 23.6368 9.40531 23.3518C11.5692 21.2429 13.2206 19.2765 14.3595 17.4526C15.5553 15.6287 16.865 13.4628 18.2886 10.9549C18.4594 10.6699 18.7157 10.5274 19.0574 10.5274C19.3421 10.5274 19.5983 10.6699 19.8261 10.9549C20.0539 11.1829 20.0539 11.4679 19.8261 11.8098C18.4025 14.3747 17.0643 16.5976 15.8115 18.4785C14.5588 20.3594 12.822 22.3828 10.6011 24.5487C10.4303 24.7197 10.231 24.8052 10.0032 24.8052ZM6.41574 58.6616C5.04907 58.6616 3.76782 58.2626 2.57199 57.4647C1.31922 56.7237 0.806721 55.4413 1.0345 53.6173C1.0345 53.1044 1.29075 52.8479 1.80324 52.8479C2.03102 52.8479 2.2588 52.9334 2.48658 53.1044C2.65741 53.2754 2.71436 53.5034 2.65741 53.7883C2.54353 54.8713 2.85672 55.6693 3.597 56.1822C4.28033 56.6952 5.21991 56.9517 6.41574 56.9517C9.20601 56.9517 11.9109 56.2392 14.5303 54.8143C17.1497 53.4464 19.5983 51.5939 21.8761 49.2571C24.2108 46.9202 26.3462 44.3268 28.2823 41.4769C30.2754 38.6271 31.9837 35.7487 33.4073 32.8418C34.8879 29.935 36.0837 27.2561 36.9948 24.8052C37.1657 24.5202 37.5358 24.2067 38.1052 23.8648C40.0413 22.8388 41.9205 21.6989 43.7427 20.4449C45.6219 19.191 47.2163 17.6806 48.5261 15.9136C48.6969 15.6287 48.9247 15.4862 49.2094 15.4862C49.4941 15.4862 49.7503 15.6571 49.9781 15.9991C50.2059 16.3411 50.1774 16.6546 49.8927 16.9396C48.2413 19.1625 46.3622 20.9294 44.2552 22.2403C42.2052 23.5513 40.2691 24.6912 38.4469 25.6602C37.5358 28.1111 36.34 30.8184 34.8594 33.7823C33.3789 36.7462 31.6136 39.6815 29.5636 42.5884C27.5705 45.4952 25.3497 48.1456 22.9011 50.5395C20.5095 52.9904 17.9185 54.9568 15.1282 56.4387C12.3379 57.9206 9.43379 58.6616 6.41574 58.6616ZM22.3032 33.2693C20.424 33.2693 18.8865 32.8133 17.6907 31.9014C16.5518 30.9894 15.7261 29.821 15.2136 28.3961C14.7011 26.9711 14.4734 25.5462 14.5303 24.1213C14.5303 23.5513 14.815 23.2663 15.3845 23.2663C15.9539 23.2663 16.2386 23.5513 16.2386 24.1213C16.1817 26.1162 16.6372 27.8546 17.6053 29.3365C18.6303 30.8184 20.1963 31.5594 22.3032 31.5594C23.6699 31.5594 25.1219 30.8469 26.6594 29.422C28.1969 27.9971 29.706 26.1447 31.1865 23.8648C32.724 21.5849 34.1191 19.1625 35.3719 16.5976C35.5427 16.2556 35.799 16.0846 36.1407 16.0846C36.4254 16.0846 36.6532 16.1986 36.824 16.4266C37.0518 16.6546 37.0802 16.9396 36.9094 17.2816C35.7136 19.7325 34.3184 22.2118 32.724 24.7197C31.1296 27.1706 29.4497 29.2225 27.6844 30.8754C25.9192 32.4714 24.1254 33.2693 22.3032 33.2693ZM6.84282 52.6769C6.10254 52.6769 5.36226 52.4489 4.62199 51.9929C3.82477 51.594 3.42616 50.91 3.42616 49.941C3.42616 49.77 3.45463 49.599 3.51157 49.4281C3.51157 49.2571 3.54005 49.0861 3.597 48.9151C3.88172 47.8891 4.62198 46.7207 5.81781 45.4097C6.9567 44.1558 8.35184 42.8734 10.0032 41.5624C11.6546 40.3085 13.2775 39.197 14.872 38.2281C16.5233 37.2591 17.89 36.5752 18.972 36.1762C19.0289 36.1192 19.1428 36.0907 19.3136 36.0907C19.8831 36.0907 20.1678 36.4042 20.1678 37.0311C20.1678 37.3161 19.9969 37.5441 19.6553 37.7151C18.6303 38.1141 17.349 38.7696 15.8115 39.6815C14.331 40.5935 12.7935 41.6194 11.1991 42.7594C9.66156 43.9563 8.35184 45.1248 7.26989 46.2647C6.13101 47.4616 5.44768 48.4876 5.2199 49.3426C5.2199 49.3996 5.2199 49.4565 5.2199 49.5135C5.16295 49.6275 5.13449 49.713 5.13449 49.77C5.13449 50.568 5.67545 50.967 6.75739 50.967C8.35183 50.967 10.1171 50.3685 12.0532 49.1716C14.0463 48.0316 16.0393 46.5212 18.0324 44.6403C20.0254 42.8164 21.8476 40.907 23.499 38.9121C25.2074 36.9171 26.5455 35.0647 27.5136 33.3548C27.6844 33.0698 27.9407 32.9273 28.2823 32.9273C28.5671 32.9273 28.8233 33.0413 29.0511 33.2693C29.2789 33.5543 29.2789 33.8678 29.0511 34.2098C28.083 35.9197 26.7164 37.8291 24.9511 39.938C23.2428 42.0469 21.3067 44.0703 19.1428 46.0082C17.0358 47.9461 14.9004 49.542 12.7365 50.796C10.6296 52.0499 8.66503 52.6769 6.84282 52.6769Z" fill="#003B5C"/>
</svg>
