<svg width="51" height="60" viewBox="0 0 51 60" fill="none" xmlns="http://www.w3.org/2000/svg">
<rect width="51" height="60" fill="#CFCCCC"/>
<path d="M23.0719 27.7369C22.1608 27.7369 21.506 27.3949 21.1074 26.711C20.7657 26.027 20.5379 25.3146 20.424 24.5736C20.3101 23.0917 20.424 21.2677 20.7657 19.1018C21.1074 16.8789 21.7053 14.5136 22.5594 12.0057C23.4136 9.4978 24.581 7.07542 26.0615 4.73853C26.1754 4.51054 26.1185 4.16855 25.8907 3.71257C25.6629 3.1996 25.008 2.82911 23.9261 2.60113C23.7553 2.54413 23.5844 2.51563 23.4136 2.51563C23.2428 2.45863 23.0435 2.43013 22.8157 2.43013C22.0754 2.43013 21.3067 2.65812 20.5094 3.1141C19.7692 3.51308 19.0858 4.25404 18.4595 5.33699C17.7192 6.59093 16.6942 8.35785 15.3845 10.6377C14.1317 12.9176 12.765 15.055 11.2845 17.0499C11.1136 17.2779 10.8859 17.3919 10.6011 17.3919C10.3164 17.3919 10.0886 17.2494 9.9178 16.9644C9.69003 16.6795 9.69003 16.366 9.9178 16.024C11.3984 14.0291 12.765 11.9202 14.0178 9.69729C15.2706 7.4744 16.2386 5.73598 16.922 4.48204C17.7192 3.1141 18.6303 2.14515 19.6553 1.57517C20.6803 1.0052 21.7337 0.720215 22.8157 0.720215C24.1824 0.720215 25.3782 1.0907 26.4032 1.83166C27.4282 2.51563 27.9407 3.34209 27.9407 4.31104C27.9407 4.71002 27.7983 5.1375 27.5136 5.59348C25.5775 8.72834 24.1824 11.9202 23.3282 15.169C22.474 18.4179 22.0469 21.0967 22.0469 23.2057C22.0469 24.2886 22.1324 25.0296 22.3032 25.4285C22.531 25.8275 22.8157 26.027 23.1574 26.027C23.6699 26.027 24.2393 25.742 24.8657 25.1721C25.549 24.5451 26.1185 23.9181 26.574 23.2911C27.0865 22.6072 27.3712 22.2082 27.4282 22.0942C28.3962 20.7263 29.3643 18.9879 30.3323 16.879C31.3004 14.7701 32.2115 12.6042 33.0657 10.3813C33.9198 8.15836 34.6601 6.24895 35.2865 4.65303C35.7421 3.39909 36.5962 2.45863 37.849 1.83166C39.1018 1.1477 40.3545 0.805711 41.6073 0.805711C42.6893 0.805711 43.6004 1.0622 44.3406 1.57517C45.1379 2.08815 45.5365 2.91461 45.5365 4.05456C45.5365 4.28255 45.5365 4.51054 45.5365 4.73853C45.5365 4.90952 45.4795 5.1375 45.3656 5.42249C45.2518 5.93547 44.9386 6.93292 44.4261 8.41485C43.9136 9.89678 43.3441 11.5212 42.7177 13.2881C42.0913 14.998 41.5219 16.537 41.0094 17.9049C40.4969 19.2158 40.1837 20.0138 40.0698 20.2988C39.899 20.6408 39.6712 20.8118 39.3865 20.8118C39.1018 20.8118 38.8455 20.6978 38.6177 20.4698C38.4469 20.2418 38.4184 19.9568 38.5323 19.6148C38.6462 19.3298 38.9309 18.5319 39.3865 17.2209C39.899 15.853 40.4399 14.3426 41.0094 12.6896C41.6358 10.9797 42.2052 9.41231 42.7177 7.98737C43.2302 6.50544 43.5434 5.53649 43.6573 5.08051C43.7143 4.85252 43.7427 4.56753 43.7427 4.22555C43.7427 3.59858 43.5434 3.1711 43.1448 2.94311C42.7462 2.65813 42.2622 2.51563 41.6927 2.51563C40.7816 2.51563 39.8136 2.80062 38.7886 3.37059C37.8205 3.88357 37.1657 4.53903 36.824 5.33699C36.4823 6.24895 35.9698 7.61689 35.2865 9.4408C34.6032 11.2077 33.8059 13.1456 32.8948 15.2545C32.0407 17.3064 31.0726 19.3013 29.9907 21.2392C28.9087 23.1202 27.7698 24.6876 26.574 25.9415C25.4351 27.1385 24.2678 27.7369 23.0719 27.7369ZM10.0032 24.9156C9.66156 24.9156 9.40531 24.7446 9.23448 24.4026C9.0067 24.0606 9.06365 23.7471 9.40531 23.4621C11.5692 21.3532 13.2206 19.3868 14.3595 17.5629C15.5553 15.739 16.865 13.5731 18.2886 11.0652C18.4595 10.7802 18.7157 10.6377 19.0574 10.6377C19.3421 10.6377 19.5983 10.7802 19.8261 11.0652C20.0539 11.2932 20.0539 11.5782 19.8261 11.9202C18.4025 14.4851 17.0643 16.708 15.8115 18.5889C14.5588 20.4698 12.822 22.4932 10.6011 24.6591C10.4303 24.8301 10.231 24.9156 10.0032 24.9156ZM6.41574 58.772C5.04907 58.772 3.76782 58.373 2.57199 57.575C1.31922 56.8341 0.806721 55.5516 1.0345 53.7277C1.0345 53.2147 1.29075 52.9582 1.80324 52.9582C2.03102 52.9582 2.2588 53.0437 2.48658 53.2147C2.65741 53.3857 2.71436 53.6137 2.65741 53.8987C2.54353 54.9816 2.85672 55.7796 3.597 56.2926C4.28033 56.8056 5.21991 57.062 6.41574 57.062C9.20601 57.062 11.9109 56.3496 14.5303 54.9247C17.1497 53.5567 19.5983 51.7043 21.8761 49.3674C24.2108 47.0305 26.3462 44.4372 28.2823 41.5873C30.2754 38.7374 31.9837 35.8591 33.4073 32.9522C34.8879 30.0453 36.0837 27.3665 36.9948 24.9156C37.1657 24.6306 37.5358 24.3171 38.1052 23.9751C40.0413 22.9492 41.9205 21.8092 43.7427 20.5553C45.6219 19.3013 47.2163 17.7909 48.526 16.024C48.6969 15.739 48.9247 15.5965 49.2094 15.5965C49.4941 15.5965 49.7503 15.7675 49.9781 16.1095C50.2059 16.4515 50.1774 16.765 49.8927 17.0499C48.2413 19.2728 46.3622 21.0398 44.2552 22.3507C42.2052 23.6616 40.2691 24.8016 38.4469 25.7705C37.5358 28.2214 36.34 30.9288 34.8594 33.8926C33.3789 36.8565 31.6136 39.7919 29.5636 42.6987C27.5705 45.6056 25.3497 48.256 22.9011 50.6499C20.5095 53.1007 17.9185 55.0671 15.1282 56.5491C12.3379 58.031 9.43379 58.772 6.41574 58.772ZM22.3032 33.3797C20.424 33.3797 18.8865 32.9237 17.6907 32.0117C16.5518 31.0998 15.7261 29.9313 15.2136 28.5064C14.7011 27.0815 14.4734 25.6565 14.5303 24.2316C14.5303 23.6616 14.815 23.3766 15.3845 23.3766C15.9539 23.3766 16.2386 23.6616 16.2386 24.2316C16.1817 26.2265 16.6372 27.9649 17.6053 29.4469C18.6303 30.9288 20.1963 31.6697 22.3032 31.6697C23.6699 31.6697 25.1219 30.9573 26.6594 29.5324C28.1969 28.1074 29.706 26.255 31.1865 23.9751C32.724 21.6952 34.1191 19.2728 35.3719 16.708C35.5427 16.366 35.799 16.195 36.1407 16.195C36.4254 16.195 36.6532 16.309 36.824 16.537C37.0518 16.765 37.0802 17.0499 36.9094 17.3919C35.7136 19.8428 34.3184 22.3222 32.724 24.8301C31.1296 27.281 29.4497 29.3329 27.6844 30.9858C25.9192 32.5817 24.1254 33.3797 22.3032 33.3797ZM6.84282 52.7872C6.10254 52.7872 5.36226 52.5593 4.62199 52.1033C3.82477 51.7043 3.42616 51.0203 3.42616 50.0514C3.42616 49.8804 3.45463 49.7094 3.51157 49.5384C3.51157 49.3674 3.54005 49.1964 3.597 49.0254C3.88172 47.9995 4.62198 46.831 5.81781 45.5201C6.9567 44.2662 8.35184 42.9837 10.0032 41.6728C11.6546 40.4188 13.2775 39.3074 14.872 38.3384C16.5233 37.3695 17.89 36.6855 18.972 36.2865C19.0289 36.2295 19.1428 36.201 19.3136 36.201C19.8831 36.201 20.1678 36.5145 20.1678 37.1415C20.1678 37.4265 19.9969 37.6545 19.6553 37.8255C18.6303 38.2244 17.349 38.8799 15.8115 39.7919C14.331 40.7038 12.7935 41.7298 11.1991 42.8697C9.66156 44.0667 8.35184 45.2351 7.26989 46.3751C6.13101 47.572 5.44768 48.598 5.2199 49.4529C5.2199 49.5099 5.2199 49.5669 5.2199 49.6239C5.16295 49.7379 5.13449 49.8234 5.13449 49.8804C5.13449 50.6784 5.67545 51.0773 6.75739 51.0773C8.35183 51.0773 10.1171 50.4789 12.0532 49.2819C14.0463 48.142 16.0393 46.6315 18.0324 44.7506C20.0254 42.9267 21.8476 41.0173 23.499 39.0224C25.2074 37.0275 26.5455 35.1751 27.5136 33.4652C27.6844 33.1802 27.9407 33.0377 28.2823 33.0377C28.5671 33.0377 28.8233 33.1517 29.0511 33.3797C29.2789 33.6647 29.2789 33.9781 29.0511 34.3201C28.083 36.03 26.7164 37.9395 24.9511 40.0484C23.2428 42.1573 21.3067 44.1807 19.1428 46.1186C17.0358 48.0565 14.9004 49.6524 12.7365 50.9063C10.6296 52.1603 8.66503 52.7872 6.84282 52.7872Z" fill="#003B5C" stroke="#003B5C"/>
</svg>
