<svg width="35" height="34" viewBox="0 0 35 34" fill="none" xmlns="http://www.w3.org/2000/svg">
<path d="M15.7457 21.3235C15.461 21.3235 15.2048 21.181 14.977 20.896C14.8062 20.554 14.8631 20.2121 15.1478 19.8701C17.1978 17.5902 19.1909 15.7663 21.127 14.3983C23.12 13.0304 25.4263 11.7195 28.0457 10.4655C29.0707 10.0095 30.1811 9.29708 31.3769 8.32812C32.5728 7.35917 33.1707 6.24772 33.1707 4.99378C33.1707 4.5378 32.9999 4.11033 32.6582 3.71135C32.3735 3.31236 31.804 3.11287 30.9499 3.11287C30.5512 3.11287 30.1811 3.14137 29.8395 3.19837C29.4978 3.19837 29.1276 3.19837 28.729 3.19837C26.7929 3.19837 24.8853 3.02738 23.0061 2.68539C21.127 2.28641 19.2478 2.08692 17.3687 2.08692C14.6923 2.08692 12.3575 2.77089 10.3645 4.13882C8.42839 5.44976 7.46035 7.18818 7.46035 9.35408C7.46035 10.893 8.02979 12.2894 9.16867 13.5434C9.33951 13.7144 9.42492 13.9139 9.42492 14.1418C9.42492 14.7688 9.14021 15.0823 8.57076 15.0823C8.34299 15.0823 8.1152 14.9683 7.88743 14.7403C6.40688 13.2014 5.6666 11.4345 5.6666 9.43957C5.6666 7.55866 6.20757 5.93424 7.28951 4.5663C8.4284 3.19837 9.88048 2.14392 11.6457 1.40295C13.468 0.661988 15.3756 0.291504 17.3687 0.291504C19.5325 0.291504 21.6679 0.547992 23.7749 1.06097C25.8818 1.51695 28.0742 1.63094 30.3519 1.40295C31.8894 1.23196 33.0283 1.48845 33.7686 2.17241C34.5089 2.85638 34.879 3.71135 34.879 4.7373C34.879 5.64925 34.5943 6.61821 34.0249 7.64416C33.4554 8.67011 32.6297 9.61057 31.5478 10.4655C30.6367 11.1495 29.6401 11.7195 28.5582 12.1754C27.5332 12.5744 26.5082 13.0589 25.4832 13.6289C24.2874 14.2558 22.9207 15.1393 21.3832 16.2792C19.9027 17.3622 18.2228 18.9581 16.3436 21.067C16.1728 21.238 15.9735 21.3235 15.7457 21.3235ZM12.3291 12.5174C12.1013 12.5174 11.902 12.4034 11.7312 12.1754C11.1048 11.3775 10.7916 10.4655 10.7916 9.43957C10.7916 7.78665 11.3895 6.50421 12.5853 5.59226C13.8381 4.6803 15.4041 4.22432 17.2832 4.22432C19.0485 4.22432 20.9846 4.42381 23.0915 4.82279C25.2554 5.22177 27.0492 5.53526 28.4728 5.76325C28.9853 5.82025 29.2415 6.10523 29.2415 6.61821C29.2415 7.30217 28.9283 7.58716 28.3019 7.47317C26.9922 7.24518 25.2554 6.93169 23.0915 6.53271C20.9846 6.13373 19.1054 5.93423 17.4541 5.93423C14.1513 5.93423 12.4999 7.10268 12.4999 9.43957C12.4999 9.95255 12.6992 10.5225 13.0978 11.1495C13.2117 11.2635 13.2687 11.4345 13.2687 11.6625C13.2687 12.2324 12.9555 12.5174 12.3291 12.5174ZM8.99784 20.9815C8.71312 20.9815 8.45687 20.839 8.22909 20.554C8.05826 20.2121 8.11521 19.8701 8.39993 19.5281C11.1902 16.6782 13.5249 14.5123 15.4041 13.0304C17.2832 11.5485 18.7068 10.551 19.6749 10.038C20.6429 9.52507 21.127 9.26858 21.127 9.26858C21.1839 9.21158 21.2978 9.18308 21.4686 9.18308C22.0381 9.18308 22.3228 9.49657 22.3228 10.1235C22.3228 10.4085 22.152 10.6365 21.8103 10.8075C21.8103 10.8075 21.5541 10.95 21.0416 11.235C20.5291 11.463 19.7888 11.919 18.8207 12.6029C17.8527 13.2869 16.5714 14.2843 14.977 15.5953C13.4395 16.9062 11.6457 18.6161 9.59575 20.725C9.42492 20.896 9.22562 20.9815 8.99784 20.9815ZM24.1165 33.5494C21.8388 33.5494 19.7603 33.122 17.8812 32.267C16.0589 31.412 14.3506 30.5571 12.7562 29.7021C11.1617 28.7902 9.53881 28.3342 7.88743 28.3342C6.86243 28.3342 6.15063 28.5907 5.75202 29.1036C5.35341 29.6166 5.15411 30.1011 5.15411 30.5571C5.15411 31.127 5.26799 31.4975 5.49576 31.6685C5.6666 31.8395 5.75202 32.039 5.75202 32.267C5.75202 32.894 5.46729 33.2074 4.89785 33.2074C4.67007 33.2074 4.44231 33.0935 4.21453 32.8655C3.58814 32.2385 3.27495 31.4975 3.27495 30.6426C3.27495 29.5026 3.70202 28.5622 4.55618 27.8212C5.46729 27.0232 6.63465 26.6243 8.05826 26.6243C9.6527 26.6243 11.3326 27.0802 13.0978 27.9922C14.92 28.9042 16.7707 29.8161 18.6499 30.7281C20.5291 31.583 22.3513 32.0105 24.1165 32.0105C26.1665 32.0105 27.761 31.412 28.8999 30.2151C30.0388 28.9611 30.6082 27.6217 30.6082 26.1968C30.6082 25.3988 30.4374 24.6294 30.0957 23.8884C29.754 23.0904 29.1846 22.4065 28.3874 21.8365C28.1596 21.6655 28.0457 21.4375 28.0457 21.1525C28.0457 20.8675 28.1881 20.611 28.4728 20.3831C28.8144 20.1551 29.1276 20.1836 29.4124 20.4686C30.4374 21.2665 31.1776 22.1785 31.6332 23.2044C32.0887 24.1734 32.3165 25.1423 32.3165 26.1113C32.3165 28.0492 31.5762 29.7876 30.0957 31.3265C28.6151 32.8085 26.6221 33.5494 24.1165 33.5494ZM25.9103 28.3342C24.2589 28.3342 22.7214 28.0777 21.2978 27.5647C19.9311 26.9947 18.5929 26.3678 17.2832 25.6838C16.0305 24.9998 14.6923 24.4014 13.2687 23.8884C11.8451 23.3184 10.2791 23.0334 8.57076 23.0334C6.29299 23.0334 4.61313 23.5179 3.53119 24.4869C2.44925 25.3988 1.90828 26.3108 1.90828 27.2227V27.3937C1.90828 27.9637 1.62356 28.2487 1.05412 28.2487C0.883288 28.2487 0.712452 28.1917 0.541619 28.0777C0.313842 27.9067 0.199951 27.7072 0.199951 27.4792C0.199951 25.6553 0.997174 24.1734 2.59161 23.0334C4.18605 21.8935 6.23605 21.3235 8.7416 21.3235C10.4499 21.3235 12.0159 21.6085 13.4395 22.1785C14.92 22.6914 16.2867 23.2899 17.5395 23.9739C18.8492 24.6579 20.1874 25.2848 21.5541 25.8548C22.9207 26.3678 24.3728 26.6243 25.9103 26.6243C26.5367 26.6243 26.8499 26.9092 26.8499 27.4792C26.8499 28.0492 26.5367 28.3342 25.9103 28.3342Z" fill="#003B5C"/>
</svg>
