<svg width="35" height="34" viewBox="0 0 35 34" fill="none" xmlns="http://www.w3.org/2000/svg">
<rect width="35" height="34" fill="#CFCCCC"/>
<path d="M15.7457 21.4339C15.461 21.4339 15.2048 21.2914 14.977 21.0064C14.8062 20.6644 14.8631 20.3224 15.1478 19.9804C17.1978 17.7005 19.1909 15.8766 21.127 14.5087C23.12 13.1408 25.4263 11.8298 28.0457 10.5759C29.0707 10.1199 30.1811 9.40743 31.3769 8.43848C32.5728 7.46952 33.1707 6.35807 33.1707 5.10413C33.1707 4.64815 32.9999 4.22068 32.6582 3.8217C32.3735 3.42272 31.804 3.22322 30.9499 3.22322C30.5512 3.22322 30.1811 3.25172 29.8395 3.30872C29.4978 3.30872 29.1276 3.30872 28.729 3.30872C26.7929 3.30872 24.8853 3.13773 23.0061 2.79575C21.127 2.39676 19.2478 2.19728 17.3687 2.19728C14.6923 2.19728 12.3575 2.88124 10.3645 4.24917C8.42839 5.56011 7.46035 7.29853 7.46035 9.46443C7.46035 11.0034 8.02979 12.3998 9.16867 13.6537C9.33951 13.8247 9.42492 14.0242 9.42492 14.2522C9.42492 14.8792 9.14021 15.1927 8.57076 15.1927C8.34299 15.1927 8.1152 15.0787 7.88743 14.8507C6.40688 13.3117 5.6666 11.5448 5.6666 9.54992C5.6666 7.66901 6.20757 6.04459 7.28951 4.67666C8.4284 3.30872 9.88048 2.25427 11.6457 1.5133C13.468 0.77234 15.3756 0.401855 17.3687 0.401855C19.5325 0.401855 21.6679 0.658343 23.7749 1.17132C25.8818 1.6273 28.0742 1.74129 30.3519 1.5133C31.8894 1.34231 33.0283 1.5988 33.7686 2.28277C34.5089 2.96673 34.879 3.8217 34.879 4.84765C34.879 5.75961 34.5943 6.72856 34.0249 7.75451C33.4554 8.78046 32.6297 9.72092 31.5478 10.5759C30.6367 11.2598 29.6401 11.8298 28.5582 12.2858C27.5332 12.6848 26.5082 13.1693 25.4832 13.7392C24.2874 14.3662 22.9207 15.2497 21.3832 16.3896C19.9027 17.4725 18.2228 19.0685 16.3436 21.1774C16.1728 21.3484 15.9735 21.4339 15.7457 21.4339ZM12.3291 12.6278C12.1013 12.6278 11.902 12.5138 11.7312 12.2858C11.1048 11.4878 10.7916 10.5759 10.7916 9.54992C10.7916 7.897 11.3895 6.61456 12.5853 5.70261C13.8381 4.79065 15.4041 4.33467 17.2832 4.33467C19.0485 4.33467 20.9846 4.53416 23.0915 4.93314C25.2554 5.33213 27.0492 5.64561 28.4728 5.8736C28.9853 5.9306 29.2415 6.21558 29.2415 6.72856C29.2415 7.41253 28.9283 7.69751 28.3019 7.58352C26.9922 7.35553 25.2554 7.04204 23.0915 6.64306C20.9846 6.24408 19.1054 6.04459 17.4541 6.04459C14.1513 6.04459 12.4999 7.21303 12.4999 9.54992C12.4999 10.0629 12.6992 10.6329 13.0978 11.2598C13.2117 11.3738 13.2687 11.5448 13.2687 11.7728C13.2687 12.3428 12.9555 12.6278 12.3291 12.6278ZM8.99784 21.0919C8.71312 21.0919 8.45687 20.9494 8.22909 20.6644C8.05826 20.3224 8.11521 19.9804 8.39993 19.6384C11.1902 16.7886 13.5249 14.6227 15.4041 13.1408C17.2832 11.6588 18.7068 10.6614 19.6749 10.1484C20.6429 9.63542 21.127 9.37893 21.127 9.37893C21.1839 9.32193 21.2978 9.29343 21.4686 9.29343C22.0381 9.29343 22.3228 9.60692 22.3228 10.2339C22.3228 10.5189 22.152 10.7469 21.8103 10.9179C21.8103 10.9179 21.5541 11.0604 21.0416 11.3453C20.5291 11.5733 19.7888 12.0293 18.8207 12.7133C17.8527 13.3972 16.5714 14.3947 14.977 15.7056C13.4395 17.0166 11.6457 18.7265 9.59575 20.8354C9.42492 21.0064 9.22562 21.0919 8.99784 21.0919ZM24.1165 33.6598C21.8388 33.6598 19.7603 33.2323 17.8812 32.3773C16.0589 31.5224 14.3506 30.6674 12.7562 29.8125C11.1617 28.9005 9.53881 28.4445 7.88743 28.4445C6.86243 28.4445 6.15063 28.701 5.75202 29.214C5.35341 29.727 5.15411 30.2114 5.15411 30.6674C5.15411 31.2374 5.26799 31.6079 5.49576 31.7789C5.6666 31.9499 5.75202 32.1494 5.75202 32.3773C5.75202 33.0043 5.46729 33.3178 4.89785 33.3178C4.67008 33.3178 4.44231 33.2038 4.21453 32.9758C3.58814 32.3488 3.27495 31.6079 3.27495 30.7529C3.27495 29.613 3.70202 28.6725 4.55618 27.9316C5.46729 27.1336 6.63465 26.7346 8.05826 26.7346C9.6527 26.7346 11.3326 27.1906 13.0978 28.1025C14.92 29.0145 16.7707 29.9265 18.6499 30.8384C20.5291 31.6934 22.3513 32.1209 24.1165 32.1209C26.1665 32.1209 27.761 31.5224 28.8999 30.3254C30.0388 29.0715 30.6082 27.7321 30.6082 26.3071C30.6082 25.5092 30.4374 24.7397 30.0957 23.9987C29.754 23.2008 29.1846 22.5168 28.3874 21.9468C28.1596 21.7758 28.0457 21.5479 28.0457 21.2629C28.0457 20.9779 28.1881 20.7214 28.4728 20.4934C28.8144 20.2654 29.1276 20.2939 29.4124 20.5789C30.4374 21.3769 31.1776 22.2888 31.6332 23.3148C32.0887 24.2837 32.3165 25.2527 32.3165 26.2216C32.3165 28.1595 31.5762 29.898 30.0957 31.4369C28.6151 32.9188 26.6221 33.6598 24.1165 33.6598ZM25.9103 28.4445C24.2589 28.4445 22.7214 28.188 21.2978 27.6751C19.9311 27.1051 18.5929 26.4781 17.2832 25.7942C16.0305 25.1102 14.6923 24.5117 13.2687 23.9987C11.8451 23.4288 10.2791 23.1438 8.57076 23.1438C6.29299 23.1438 4.61313 23.6283 3.53119 24.5972C2.44925 25.5092 1.90828 26.4211 1.90828 27.3331V27.5041C1.90828 28.074 1.62356 28.359 1.05412 28.359C0.883288 28.359 0.712452 28.302 0.541619 28.188C0.313842 28.017 0.199951 27.8176 0.199951 27.5896C0.199951 25.7657 0.997174 24.2837 2.59161 23.1438C4.18605 22.0038 6.23605 21.4339 8.7416 21.4339C10.4499 21.4339 12.0159 21.7188 13.4395 22.2888C14.92 22.8018 16.2867 23.4003 17.5395 24.0842C18.8492 24.7682 20.1874 25.3952 21.5541 25.9651C22.9207 26.4781 24.3728 26.7346 25.9103 26.7346C26.5367 26.7346 26.8499 27.0196 26.8499 27.5896C26.8499 28.1595 26.5367 28.4445 25.9103 28.4445Z" fill="#003B5C"/>
</svg>
